<?xml version="1.0" encoding="UTF-8"?>
<svg version="1.1" xmlns="http://www.w3.org/2000/svg" width="1409" height="1449">
<path d="M0 0 C1.02943096 0.2040832 2.05886192 0.40816641 3.11948776 0.61843395 C6.52581894 1.29511323 9.93047876 1.97984637 13.33520508 2.66455078 C15.77240328 3.15021316 18.20970755 3.63534352 20.64710999 4.11997986 C26.51872159 5.28873716 32.38929676 6.46256711 38.25938326 7.63895136 C45.73468753 9.13684444 53.21117829 10.62878013 60.68774414 12.12036133 C62.75178491 12.5321566 64.81582552 12.94395273 66.87986577 13.35575062 C68.26071396 13.63123948 69.64156468 13.90671572 71.0224179 14.18217939 C75.19213489 15.01404686 79.3617042 15.84665019 83.53117502 16.67975062 C100.97782995 20.16539981 118.43089911 23.61597008 135.89307594 27.02320099 C139.31024582 27.6902596 142.72715687 28.35862649 146.14396667 29.02752686 C147.24060922 29.2422036 148.33725176 29.45688034 149.46712589 29.67806244 C151.6332388 30.10213499 153.79934294 30.52625229 155.96543789 30.95041656 C161.19722823 31.97425541 166.42968475 32.99443443 171.66366577 34.00701904 C176.52755329 34.94802268 181.38965311 35.89775382 186.25051689 36.85424995 C188.0140033 37.19950216 189.77815767 37.54136293 191.54301643 37.87952995 C193.9329411 38.33781376 196.32024622 38.80790752 198.70727539 39.28100586 C199.74208935 39.47484769 199.74208935 39.47484769 200.79780865 39.67260551 C205.46861071 40.61667262 209.65438459 41.82364651 212.47973633 45.85986328 C213.32733362 48.47970944 213.46930873 50.23399061 213.16723633 52.98486328 C211.47973633 55.37939453 211.47973633 55.37939453 209.16723633 57.79736328 C208.34481445 58.66748047 207.52239258 59.53759766 206.67504883 60.43408203 C203.82596235 63.33198464 200.95811406 66.20843727 198.06176758 69.05908203 C196.19912934 70.9524442 194.45889078 72.90700396 192.72973633 74.92236328 C189.4559298 78.73310391 185.93359662 82.23564493 182.35864258 85.76220703 C179.74622565 88.41187768 177.33421012 91.19659131 174.91333008 94.02001953 C172.44120215 96.80185476 169.78293086 99.37862279 167.13208008 101.98876953 C165.24492889 103.90593505 163.48038258 105.8806165 161.72973633 107.92236328 C159.16058362 110.91288044 156.47406377 113.71603012 153.66723633 116.48486328 C150.88102492 119.23342318 148.21415241 122.01346119 145.66723633 124.98486328 C142.41559005 128.77845061 138.91010538 132.25878975 135.35473633 135.76611328 C133.37003291 137.7791696 131.50626716 139.83932731 129.66723633 141.98486328 C126.41559005 145.77845061 122.91010538 149.25878975 119.35473633 152.76611328 C117.37003291 154.7791696 115.50626716 156.83932731 113.66723633 158.98486328 C110.41678982 162.77705087 106.91274064 166.25621859 103.35864258 169.76220703 C100.74622565 172.41187768 98.33421012 175.19659131 95.91333008 178.02001953 C93.44486304 180.79773524 90.7908394 183.37089114 88.14379883 185.97705078 C86.19215642 187.95954919 84.35965115 190.00422408 82.54223633 192.10986328 C81.9724707 192.76212891 81.40270508 193.41439453 80.81567383 194.08642578 C79.74487655 195.31961885 78.6867212 196.56394562 77.64379883 197.82080078 C75.01847538 200.77949863 73.470469 201.92735364 69.54223633 202.67236328 C65.249732 201.79796425 64.64203648 200.50809042 62.16723633 196.98486328 C61.09184173 195.07905397 60.07212619 193.14108541 59.10083008 191.18017578 C58.5379126 190.04974854 57.97499512 188.91932129 57.39501953 187.75463867 C56.79806494 186.53980862 56.20130807 185.32488139 55.60473633 184.10986328 C54.98556495 182.86024649 54.36601313 181.61081815 53.74609375 180.36157227 C49.28301296 171.34613604 44.91468289 162.28512147 40.63183594 153.18261719 C40.21683838 152.30395996 39.80184082 151.42530273 39.37426758 150.52001953 C39.01824463 149.76084229 38.66222168 149.00166504 38.29541016 148.21948242 C37.03781707 145.72851736 35.61234384 143.37098826 34.16723633 140.98486328 C33.25792358 141.04750366 32.34861084 141.11014404 31.41174316 141.17468262 C22.82018948 141.76604756 14.22846079 142.35478804 5.63652802 142.94062042 C1.21990631 143.24185531 -3.19664247 143.54408564 -7.61303711 143.84863281 C-11.87929005 144.14278897 -16.14571794 144.43427554 -20.41227722 144.72395325 C-22.03572528 144.83464036 -23.65910932 144.94627077 -25.28242493 145.05888367 C-27.56531547 145.21708686 -29.84841568 145.37185954 -32.1315918 145.52587891 C-33.42842896 145.61470337 -34.72526611 145.70352783 -36.06140137 145.79504395 C-47.18963797 146.35514778 -47.18963797 146.35514778 -49.89526367 144.79736328 C-51.27091959 142.13776183 -50.6688974 140.85387191 -49.83276367 137.98486328 C-48.47983862 135.5536454 -47.09483759 133.24983965 -45.58276367 130.92236328 C-45.1409375 130.22900879 -44.69911133 129.5356543 -44.24389648 128.82128906 C-42.78313426 126.53613128 -41.30970246 124.2595958 -39.83276367 121.98486328 C-39.33131836 121.21126465 -38.82987305 120.43766602 -38.31323242 119.640625 C-37.27303419 118.03720551 -36.2318339 116.4344357 -35.18969727 114.83227539 C-34.11218996 113.17443332 -33.03701913 111.51507048 -31.96411133 109.85424805 C-28.98551355 105.25187942 -25.95695802 100.69348621 -22.85620117 96.17236328 C-21.55648599 94.2350216 -20.25700138 92.2975252 -18.95776367 90.35986328 C-18.33224609 89.47218262 -17.70672852 88.58450195 -17.06225586 87.66992188 C-16.21002441 86.38335693 -16.21002441 86.38335693 -15.34057617 85.07080078 C-14.57704834 83.95777588 -14.57704834 83.95777588 -13.7980957 82.82226562 C-11.00220413 74.60429602 -14.90718792 63.90731653 -16.55541992 55.69189453 C-16.82362813 54.3330182 -17.09123048 52.97402216 -17.35826111 51.61491394 C-18.48380656 45.89252246 -19.62125523 40.17251031 -20.76074219 34.45288086 C-21.46121549 30.93463466 -22.15521145 27.41515743 -22.84551811 23.89490318 C-23.23484254 21.92036069 -23.63175388 19.94731895 -24.02882385 17.97431946 C-24.26584518 16.76583847 -24.50286652 15.55735748 -24.74707031 14.31225586 C-24.95723282 13.25653885 -25.16739532 12.20082184 -25.38392639 11.1131134 C-26.62154608 2.48730597 -26.62154608 2.48730597 -24.52026367 -1.51513672 C-17.88569046 -5.21815433 -7.16296549 -1.45358547 0 0 Z M131.69238281 64.75390625 C130.23464169 64.94490263 128.77685641 65.13556226 127.31903076 65.32591248 C114.0701965 67.06317459 100.82956952 68.86503561 87.59130764 70.68092155 C77.81725511 72.02099103 68.04021802 73.33172606 58.25710815 74.60403144 C51.3625348 75.50322327 44.47305168 76.43630828 37.58640343 77.39428627 C33.47915121 77.96465965 29.37116193 78.51990358 25.25701714 79.03844833 C21.38746543 79.5268322 17.52594358 80.05708579 13.66645813 80.61935616 C12.2540484 80.81774409 10.83943493 81.00114554 9.42294502 81.16792488 C1.39032567 82.04010814 1.39032567 82.04010814 -5.19490528 86.28946209 C-6.96419286 88.78777101 -8.43077783 91.26744101 -9.83276367 93.98486328 C-10.54827393 95.06968994 -11.26378418 96.1545166 -12.00097656 97.2722168 C-12.89417603 98.6787854 -12.89417603 98.6787854 -13.80541992 100.11376953 C-14.47766602 101.16886719 -15.14991211 102.22396484 -15.8425293 103.31103516 C-16.51993164 104.37902344 -17.19733398 105.44701172 -17.89526367 106.54736328 C-19.26031602 108.69502842 -20.6261878 110.84217297 -21.99291992 112.98876953 C-22.63890137 114.00471191 -23.28488281 115.0206543 -23.95043945 116.06738281 C-26.17052415 119.50837012 -28.46614027 122.8929062 -30.79931641 126.25805664 C-32.00394102 127.93548176 -32.00394102 127.93548176 -31.83276367 129.98486328 C-24.42031585 128.07060513 -17.22081947 125.81963566 -10.02807617 123.20361328 C-9.012164 122.8380835 -7.99625183 122.47255371 -6.94955444 122.09594727 C-3.61754669 120.89612622 -0.28768444 119.69046293 3.04223633 118.48486328 C5.40730911 117.63220139 7.77254661 116.77999625 10.13793945 115.92822266 C15.04775817 114.15980643 19.95686513 112.38943479 24.86547852 110.61767578 C35.04033883 106.9467405 45.22378397 103.29980797 55.40719604 99.65267944 C59.76585245 98.09131549 64.12396732 96.52844299 68.48210144 94.96562195 C77.67111739 91.67053312 86.86105783 88.37804556 96.05239868 85.08944702 C100.86970425 83.36574077 105.68669455 81.64115447 110.50366211 79.91650391 C112.78361598 79.10047322 115.06372151 78.28486611 117.34399414 77.46972656 C129.65480439 73.068805 141.94615285 68.62984341 154.16723633 63.98486328 C154.16723633 63.65486328 154.16723633 63.32486328 154.16723633 62.98486328 C146.57297963 62.71359571 139.20685147 63.75001659 131.69238281 64.75390625 Z M139.70068359 73.53515625 C138.76227631 73.87818787 137.82386902 74.22121948 136.85702515 74.574646 C135.8263089 74.95493958 134.79559265 75.33523315 133.73364258 75.72705078 C131.49886567 76.54493552 129.26408353 77.36280596 127.02929688 78.18066406 C125.84153656 78.61670959 124.65377625 79.05275513 123.43002319 79.50201416 C117.13461677 81.81216264 110.83504105 84.11084827 104.53442383 86.40673828 C103.88993727 86.641646 103.24545071 86.87655373 102.58143425 87.11857986 C89.53694152 91.87085766 76.45361352 96.50977161 63.35473633 101.10986328 C43.81783661 107.97348287 24.31947563 114.93830407 4.84375 121.97363281 C2.88649449 122.68055634 0.92921966 123.3874264 -1.02807617 124.09423828 C-1.95398056 124.42861908 -2.87988495 124.76299988 -3.83384705 125.10751343 C-12.15237707 128.10779448 -20.48831768 131.05752706 -28.83276367 133.98486328 C-28.83276367 134.31486328 -28.83276367 134.64486328 -28.83276367 134.98486328 C-26.69342334 134.86277229 -24.55410548 134.74028751 -22.41479492 134.61767578 C-21.73851547 134.57902405 -21.06223602 134.54037231 -20.36546326 134.50054932 C-16.57701559 134.28285179 -12.78910873 134.05850473 -9.00170898 133.82324219 C-1.53828997 133.36209303 5.91617518 132.94031195 13.38989258 132.68798828 C14.6626001 132.63239746 15.93530762 132.57680664 17.24658203 132.51953125 C19.61252262 132.41661638 21.97986524 132.34065413 24.34765625 132.29785156 C32.22304685 131.90562417 37.54679254 129.50745149 44.1628418 125.39648438 C48.78700377 122.54085689 53.62341611 120.15111845 58.49145508 117.74267578 C59.41155365 117.28500824 60.33165222 116.8273407 61.27963257 116.35580444 C64.13626473 114.93695761 66.99526278 113.5229738 69.85473633 112.10986328 C73.63092372 110.24037388 77.40570493 108.36808654 81.17895508 106.49267578 C82.10659668 106.03169495 83.03423828 105.57071411 83.98999023 105.09576416 C90.80131823 101.69772478 97.542696 98.18040982 104.26576233 94.61160278 C109.61371386 91.78052726 115.00038765 89.040876 120.42504883 86.35986328 C121.16304214 85.99480682 121.90103546 85.62975037 122.66139221 85.25363159 C125.64194535 83.78147186 128.62393093 82.31232589 131.60913086 80.84960938 C133.84207656 79.75412197 136.0712873 78.65133253 138.30004883 77.54736328 C138.978992 77.21720215 139.65793518 76.88704102 140.35745239 76.546875 C143.89192583 74.9549559 143.89192583 74.9549559 146.16723633 71.98486328 C143.70331563 71.98486328 142.01872367 72.68300293 139.70068359 73.53515625 Z " fill="#E6135D" transform="translate(1148.832763671875,1041.01513671875)"/>
<path d="M0 0 C1.85619242 0.63998782 3.71106606 1.2838739 5.5625 1.9375 C5.8925 0.9475 6.2225 -0.0425 6.5625 -1.0625 C9.76260301 -2.6625515 13.08960317 -2.55764569 16.5625 -2.0625 C19 -0.375 19 -0.375 20.5625 1.9375 C20.645 2.783125 20.7275 3.62875 20.8125 4.5 C21.06 5.304375 21.3075 6.10875 21.5625 6.9375 C23.53436343 7.8609745 25.54140985 8.47089293 27.61328125 9.13671875 C29.5625 9.9375 29.5625 9.9375 31.625 12.25 C32.81832543 15.67086622 32.66171909 17.49328019 31.5625 20.9375 C30 23.3125 30 23.3125 27.5625 24.9375 C23.70717855 25.48937061 20.27159304 25.17386435 16.5625 23.9375 C16.38074219 25.22333984 16.38074219 25.22333984 16.1953125 26.53515625 C13.86255804 42.45171938 13.86255804 42.45171938 10.375 46.4375 C6.59135208 48.45544556 4.63779359 48.12303995 0.5625 46.9375 C-1.66015625 45.25390625 -1.66015625 45.25390625 -3.4375 42.9375 C-3.6796875 40.08984375 -3.6796875 40.08984375 -3.3125 36.875 C-3.12494141 35.16570313 -3.12494141 35.16570313 -2.93359375 33.421875 C-2.24183003 28.56318809 -1.42960155 23.74389489 -0.4375 18.9375 C-1.55769531 18.55078125 -2.67789062 18.1640625 -3.83203125 17.765625 C-5.30492909 17.24026016 -6.77757226 16.71418095 -8.25 16.1875 C-8.98798828 15.93484375 -9.72597656 15.6821875 -10.48632812 15.421875 C-17.39460749 12.92114039 -17.39460749 12.92114039 -19.4375 8.9375 C-20.02240372 5.01028932 -19.78344305 3.45641457 -17.5625 0.125 C-12.39085206 -5.19875523 -6.28411919 -2.09223331 0 0 Z " fill="#E6135D" transform="translate(332.4375,615.0625)"/>
<path d="M0 0 C1.13808562 1.15513068 2.26563498 2.32072991 3.3828125 3.49609375 C3.96289062 4.08583984 4.54296875 4.67558594 5.140625 5.28320312 C9.65348467 9.91731954 10.88261188 12.15342065 10.80664062 18.47802734 C10.30274094 22.61873242 8.41210093 25.73777764 6.2578125 29.24609375 C5.86207031 29.93509766 5.46632813 30.62410156 5.05859375 31.33398438 C-0.23565155 40.33420139 -0.23565155 40.33420139 -4.4921875 41.46484375 C-8.04096859 41.40939405 -9.94339425 41.31352754 -12.9296875 39.24609375 C-14.6931774 36.63612869 -15.1902118 35.0585847 -15.4921875 31.93359375 C-14.56640625 29.43359375 -14.56640625 29.43359375 -13.1796875 26.93359375 C-11.39006639 23.65176706 -9.82216391 20.43024534 -8.4921875 16.93359375 C-9.44931641 15.99386719 -9.44931641 15.99386719 -10.42578125 15.03515625 C-11.25207031 14.21789062 -12.07835937 13.400625 -12.9296875 12.55859375 C-13.75339844 11.74648438 -14.57710938 10.934375 -15.42578125 10.09765625 C-17.85447481 7.55418512 -18.41724943 6.60803641 -18.8046875 3.12109375 C-18.41661604 -0.83723517 -17.31781345 -2.31926991 -14.4921875 -5.06640625 C-9.39109817 -7.88080036 -3.67463372 -3.48639152 0 0 Z " fill="#E6135D" transform="translate(526.4921875,552.06640625)"/>
<path d="M0 0 C2.375 1.5625 2.375 1.5625 4 4 C4.87078652 9.48595506 4.87078652 9.48595506 4 12 C-1.2073938 17.18962113 -7.76927559 20.73602251 -14 24.5625 C-16.12548108 25.87552364 -18.25049551 27.18930304 -20.375 28.50390625 C-21.36121338 29.11186035 -22.34742676 29.71981445 -23.36352539 30.34619141 C-25.46621172 31.66516512 -27.51992744 33.01947175 -29.55859375 34.43359375 C-32.67442666 36.43271214 -34.3637144 36.61894223 -38 36 C-41.41639845 34.0260809 -42.72268412 32.81461541 -44 29.0625 C-44 25.34369177 -43.13025503 24.00793412 -41 21 C-38.90625 19.25830078 -38.90625 19.25830078 -36.5 17.6953125 C-35.61747559 17.11483154 -34.73495117 16.53435059 -33.82568359 15.9362793 C-32.89320801 15.33855713 -31.96073242 14.74083496 -31 14.125 C-30.05334473 13.50729736 -29.10668945 12.88959473 -28.13134766 12.25317383 C-25.42713176 10.49225125 -22.71435135 8.74524063 -20 7 C-18.75714618 6.18982334 -17.51484234 5.37880139 -16.2734375 4.56640625 C-6.54894626 -1.73747554 -6.54894626 -1.73747554 0 0 Z " fill="#E6135D" transform="translate(269,57)"/>
<path d="M0 0 C2.34712967 1.24443228 4.52422128 2.50793481 6.75 3.9375 C11.06313877 6.63513234 15.38709355 9.24548647 19.875 11.64453125 C21.09171387 12.29723999 21.09171387 12.29723999 22.33300781 12.96313477 C23.91557416 13.80573145 25.50333568 14.63865914 27.09667969 15.46069336 C31.29646047 17.7129726 34.11449385 19.39515828 36 24 C35.92733979 27.5603504 35.38506043 29.43721938 33.375 32.375 C30.20311158 34.54523944 27.68503927 34.63387472 24 34 C20.48473604 32.64260614 17.23401894 30.88003046 13.9375 29.0625 C13.01735107 28.56685547 12.09720215 28.07121094 11.14916992 27.56054688 C-9.4459309 16.33110365 -9.4459309 16.33110365 -13 11 C-13.50326079 7.14166724 -13.31669325 5.49142057 -11.1875 2.1875 C-7.50117282 -1.49882718 -4.83211562 -1.2080289 0 0 Z " fill="#E6135D" transform="translate(261,580)"/>
<path d="M0 0 C4.0908218 4.1572043 6.31583103 9.36877024 8.8125 14.5625 C12.16824577 21.45231619 15.65058621 28.05505245 19.8203125 34.4921875 C21.26363392 37.56044031 21.36206661 39.64515496 21 43 C18.39210172 46.63525215 16.9297642 47.83397068 12.5 48.625 C8.00196346 47.82177919 6.97480528 46.43765263 4 43 C2.21543683 40.26974654 0.66227441 37.43781757 -0.875 34.5625 C-1.51864502 33.37466919 -1.51864502 33.37466919 -2.17529297 32.1628418 C-3.0443426 30.55067531 -3.9084879 28.93585497 -4.76757812 27.31835938 C-5.89948033 25.18909167 -7.0500534 23.07096844 -8.203125 20.953125 C-8.84565815 19.74059256 -9.48640275 18.52710995 -10.125 17.3125 C-10.96417969 15.72888672 -10.96417969 15.72888672 -11.8203125 14.11328125 C-13.18717571 10.50602967 -13.34927174 7.82820205 -13 4 C-9.01693752 -1.04521248 -6.191012 -1.49438221 0 0 Z " fill="#E6135D" transform="translate(116,420)"/>
<path d="M0 0 C2.875 1.4375 2.875 1.4375 5 4 C5.71252614 7.13166733 5.92443785 9.91129002 5 13 C1.28383199 16.38320145 -2.84145815 18.64056478 -7.3125 20.85546875 C-8.00384033 21.20257401 -8.69518066 21.54967926 -9.4074707 21.90730286 C-10.86164545 22.63540589 -12.31732375 23.36051299 -13.77441406 24.08276367 C-15.99742662 25.18622263 -18.21373179 26.30237133 -20.4296875 27.41992188 C-21.84857413 28.12837418 -23.26783273 28.83608207 -24.6875 29.54296875 C-25.34596924 29.87523972 -26.00443848 30.20751068 -26.68286133 30.54985046 C-30.08244474 32.22388858 -33.20176607 33.65314273 -37 34 C-39.83713564 32.61442213 -41.77001704 31.22998296 -44 29 C-44.73202614 23.41830065 -44.73202614 23.41830065 -44 21 C-39.86280361 17.17364142 -35.64807311 14.51621398 -30.625 12.01171875 C-29.93744629 11.66365677 -29.24989258 11.31559479 -28.54150391 10.95698547 C-27.09806293 10.22956127 -25.65254985 9.5062354 -24.20507812 8.78686523 C-21.99883557 7.68691946 -19.8041415 6.56599519 -17.609375 5.44335938 C-16.1985661 4.73568298 -14.78712815 4.02925897 -13.375 3.32421875 C-12.7248291 2.98992355 -12.0746582 2.65562836 -11.40478516 2.311203 C-7.43456243 0.36592396 -4.41296813 -0.48306467 0 0 Z " fill="#E6135D" transform="translate(332,22)"/>
<path d="M0 0 C3.66246173 1.87085116 5.8163587 5.20667917 8.22558594 8.4453125 C9.35489594 9.90274934 10.48641114 11.35848011 11.62011719 12.8125 C12.16748535 13.52116211 12.71485352 14.22982422 13.27880859 14.95996094 C15.37955648 17.61346852 17.6147919 20.08587564 19.91308594 22.5703125 C27.47095 30.87840571 27.47095 30.87840571 28.41308594 36.0078125 C27.62943166 40.1002293 26.20293158 41.5202114 22.85058594 43.9453125 C18.59125042 44.71973714 16.64395251 44.44547839 12.97558594 42.1328125 C8.94174878 38.33312948 5.59980056 33.86678105 2.14941406 29.546875 C-0.67297296 26.06663838 -3.60414644 22.67600837 -6.51928711 19.2734375 C-10.38248194 14.74054743 -12.62119922 12.05789897 -12.47363281 5.8828125 C-11.97347424 2.89391309 -10.55711368 1.66509794 -8.14941406 -0.0546875 C-4.94821708 -1.12175316 -3.19350373 -1.00582795 0 0 Z " fill="#E6135D" transform="translate(153.1494140625,482.0546875)"/>
<path d="M0 0 C3.17276858 1.09536058 5.19147295 3.17506294 7.60546875 5.453125 C10.45334968 8.13625249 13.41560257 10.658119 16.40625 13.1796875 C16.96368896 13.6526123 17.52112793 14.12553711 18.09545898 14.61279297 C22.05358133 17.95587599 26.10031448 21.15394685 30.26171875 24.2421875 C32.86384958 26.43345556 33.89567873 28.19950489 34.40625 31.5546875 C33.96875 34.6796875 33.96875 34.6796875 31.90625 37.5546875 C28.20166293 40.23460155 26.46890097 40.13066212 21.96875 39.6796875 C19.15234375 38.1328125 19.15234375 38.1328125 16.40625 35.9296875 C15.38273437 35.11628906 14.35921875 34.30289063 13.3046875 33.46484375 C8.51750497 29.49655913 3.78496271 25.46454217 -0.90234375 21.37890625 C-2.85559079 19.67710555 -4.82407094 18.05025566 -6.85546875 16.4375 C-9.20050994 14.54294249 -10.20530804 13.57048437 -11.03125 10.6796875 C-10.70938268 4.56420838 -10.70938268 4.56420838 -8.59375 1.8046875 C-5.63888071 -0.32281839 -3.62657703 -0.60938384 0 0 Z " fill="#E6135D" transform="translate(201.03125,535.3203125)"/>
<path d="M0 0 C2.82847039 2.60517009 3.8665852 4.1995112 4.5 8 C3.67617966 12.94292203 0.79756213 15.37877308 -3.07421875 18.39453125 C-4.2702982 19.21285744 -5.47526399 20.01830376 -6.6875 20.8125 C-7.66021851 21.45227783 -7.66021851 21.45227783 -8.65258789 22.10498047 C-13.59122835 25.26726269 -18.66557219 28.05947265 -23.9375 30.625 C-24.62223389 30.96764893 -25.30696777 31.31029785 -26.01245117 31.66333008 C-30.89316456 33.93602868 -34.61887691 34.44890652 -40 34 C-42.5 32.5 -42.5 32.5 -44 30 C-44.54686219 27.22011721 -44.72991469 24.74791413 -44 22 C-40.85433858 17.86181436 -36.69502365 16.30822265 -32.0625 14.3125 C-25.00240689 11.14922631 -18.86247663 7.45846554 -12.63671875 2.8828125 C-8.05282356 -0.39042821 -5.60426608 -1.75133315 0 0 Z " fill="#E6135D" transform="translate(500,604)"/>
<path d="M0 0 C3.34426652 2.711069 4.55812311 4.82750828 5.4375 9 C5.67082031 10.04027344 5.90414062 11.08054687 6.14453125 12.15234375 C6.42683594 13.42207031 6.70914063 14.69179688 7 16 C7.8567448 19.52543153 8.74121175 23.04376607 9.625 26.5625 C9.84341553 27.44357422 10.06183105 28.32464844 10.28686523 29.23242188 C10.49384033 30.06451172 10.70081543 30.89660156 10.9140625 31.75390625 C11.1917749 32.87261108 11.1917749 32.87261108 11.47509766 34.01391602 C11.91919062 35.69423985 12.45039043 37.3511713 13 39 C13.68113523 46.03839733 13.68113523 46.03839733 10.875 50 C8 52 8 52 5 52.5625 C1.11452783 51.83397397 -0.23092323 50.85102764 -3 48 C-4.41252806 44.80296812 -5.26485399 41.50678848 -6.125 38.125 C-6.50229248 36.717948 -6.50229248 36.717948 -6.88720703 35.2824707 C-7.61587257 32.52718938 -8.31447297 29.76629713 -9 27 C-9.18369141 26.26668457 -9.36738281 25.53336914 -9.55664062 24.77783203 C-12.9000404 11.18777776 -12.9000404 11.18777776 -12 5 C-8.63554266 0.10624387 -5.8387112 -0.95542547 0 0 Z " fill="#E6135D" transform="translate(93,350)"/>
<path d="M0 0 C4.14866582 0.66674986 5.81886615 1.31264078 8.5 4.5625 C9.3617656 8.07111707 9.55073781 9.24261564 8.5 12.5625 C6.57959311 15.44311034 4.43445408 17.96605207 2.14453125 20.5625 C-0.61641381 23.69456175 -3.16295963 26.92805906 -5.6875 30.25 C-6.10757324 30.797771 -6.52764648 31.34554199 -6.96044922 31.90991211 C-9.80674791 35.62625599 -12.60187592 39.37788645 -15.34375 43.171875 C-17.31932425 45.54790348 -18.70909853 45.58617153 -21.8125 45.9375 C-25.5 45.5625 -25.5 45.5625 -28.4375 43.4375 C-30.91347222 39.98614479 -30.969321 38.72517317 -30.5 34.5625 C-28.98828125 31.6953125 -28.98828125 31.6953125 -26.8125 28.6875 C-26.2232373 27.86862305 -26.2232373 27.86862305 -25.62207031 27.03320312 C-6.65032117 1.06880162 -6.65032117 1.06880162 0 0 Z " fill="#E6135D" transform="translate(151.5,147.4375)"/>
<path d="M0 0 C3.19535304 2.10220594 3.89447456 3.6892862 5.125 7.3125 C4.97402988 11.76611859 4.05416797 13.02286263 1.05078125 16.13671875 C-2.16051268 19.05440867 -5.52401013 21.76140979 -8.92578125 24.453125 C-11.16597594 26.30904232 -13.26359282 28.16242271 -15.35546875 30.171875 C-15.92064209 30.71303955 -16.48581543 31.2542041 -17.06811523 31.81176758 C-18.16210081 32.86922874 -19.24685023 33.93635833 -20.32055664 35.0144043 C-23.92767447 38.48760723 -26.92767343 40.12278587 -32 41 C-37.52272727 38.95454545 -37.52272727 38.95454545 -39 36 C-39.73426121 29.01361364 -39.73426121 29.01361364 -36.76171875 24.91015625 C-35.7583073 23.93841919 -34.73210142 22.98981619 -33.6875 22.0625 C-32.87478638 21.29836792 -32.87478638 21.29836792 -32.0456543 20.51879883 C-26.91083637 15.75294091 -21.50045344 11.33419188 -16 7 C-15.19433594 6.30390625 -14.38867188 5.6078125 -13.55859375 4.890625 C-9.09161932 1.11145882 -6.13111048 -1.32239638 0 0 Z " fill="#E6135D" transform="translate(208,98)"/>
<path d="M0 0 C2.875 1.5 2.875 1.5 5 4 C5.7538066 10.87471624 3.88012037 15.3978267 0.875 21.5 C-2.49542616 28.60826989 -5.54084825 35.69454928 -8.05908203 43.15039062 C-9.29770194 46.67976151 -9.77545298 47.85030199 -13 50 C-19.90410959 50.65753425 -19.90410959 50.65753425 -23.5 48.5 C-25.58875742 45.01873764 -25.45915006 41.92214719 -25 38 C-24.06468841 34.51868078 -22.78373376 31.21608514 -21.4375 27.875 C-21.07688477 26.9586377 -20.71626953 26.04227539 -20.34472656 25.09814453 C-9.74841639 -1.39263091 -9.74841639 -1.39263091 0 0 Z " fill="#E6135D" transform="translate(114,208)"/>
<path d="M0 0 C2.234375 1.609375 2.234375 1.609375 4 4 C4.2421875 7.16015625 4.2421875 7.16015625 3.875 11.0625 C3.74264873 12.56763463 3.61120609 14.07284932 3.48046875 15.578125 C3.40103027 16.42181641 3.3215918 17.26550781 3.23974609 18.13476562 C2.96519324 21.41597982 2.7862227 24.69626449 2.61328125 27.984375 C2.47166919 30.42710162 2.32974206 32.86980999 2.1875 35.3125 C2.12997559 36.4991626 2.07245117 37.6858252 2.01318359 38.90844727 C1.90417725 40.58765259 1.90417725 40.58765259 1.79296875 42.30078125 C1.7364917 43.30278564 1.68001465 44.30479004 1.62182617 45.3371582 C0.85139076 48.63638828 -0.39407676 49.89435516 -3 52 C-5 52.53125 -5 52.53125 -7 52.5 C-7.99 52.51546875 -7.99 52.51546875 -9 52.53125 C-11.92708127 51.75374404 -13.09597746 50.32545662 -15 48 C-15.48583984 45.32128906 -15.48583984 45.32128906 -15.4609375 42.265625 C-15.45868164 41.1410791 -15.45642578 40.0165332 -15.45410156 38.85791016 C-15.42799805 37.6672998 -15.40189453 36.47668945 -15.375 35.25 C-15.35920898 34.03747559 -15.34341797 32.82495117 -15.32714844 31.57568359 C-14.84541589 6.13545561 -14.84541589 6.13545561 -9 0 C-5.81452856 -1.59273572 -3.39809153 -0.76164121 0 0 Z " fill="#E6135D" transform="translate(93,278)"/>
<path d="M0 0 C0.98367554 -0.00478363 1.96735107 -0.00956726 2.98083496 -0.01449585 C5.05869141 -0.01789535 7.13660131 -0.00868946 9.21435547 0.01220703 C12.39541851 0.03897137 15.572953 0.01246039 18.75390625 -0.01953125 C20.77344529 -0.01622716 22.79298214 -0.00982095 24.8125 0 C25.76362671 -0.01012115 26.71475342 -0.02024231 27.69470215 -0.03067017 C34.26791068 0.0860321 34.26791068 0.0860321 37.50585938 3.01806641 C39.23090449 6.27748742 39.51280997 8.02470265 38.90625 11.6640625 C36.0243657 16.29566227 36.0243657 16.29566227 33.00132751 17.29170227 C29.55530477 17.90416735 26.08685587 17.82700814 22.59765625 17.83203125 C21.79392075 17.83535965 20.99018524 17.83868805 20.16209412 17.84211731 C18.46508352 17.8471714 16.76806303 17.8495261 15.07104492 17.84936523 C12.48144092 17.85155178 9.89226307 17.8697235 7.30273438 17.88867188 C5.65104312 17.89160614 3.99934985 17.89359071 2.34765625 17.89453125 C1.57668106 17.90171677 0.80570587 17.90890228 0.0113678 17.91630554 C-5.02641168 17.89499995 -8.69064397 17.23851128 -12.90625 14.4765625 C-14.86337553 11.4893709 -14.51249237 9.13364214 -14.09375 5.6640625 C-10.81784818 -0.63460327 -6.38200048 -0.06791231 0 0 Z " fill="#E6135D" transform="translate(398.09375,629.3359375)"/>
<path d="M0 0 C3.02327905 3.2934569 5.19278028 6.8800445 7.34765625 10.78125 C7.95287109 11.87050781 8.55808594 12.95976563 9.18164062 14.08203125 C9.80232422 15.20996094 10.42300781 16.33789062 11.0625 17.5 C12.30277615 19.7399208 13.54364022 21.97951618 14.78515625 24.21875 C15.33051025 25.20810547 15.87586426 26.19746094 16.43774414 27.21679688 C17.47023292 29.05620493 18.55806372 30.86573169 19.70092773 32.63867188 C21 35 21 35 21 38.5625 C20 42 20 42 17.875 44.5 C14.05036816 46.49546009 12.10368679 46.19379979 8 45 C4.78653622 42.23912023 2.76092278 39.22170117 0.65234375 35.5703125 C0.04712891 34.52746094 -0.55808594 33.48460937 -1.18164062 32.41015625 C-1.80232422 31.32605469 -2.42300781 30.24195313 -3.0625 29.125 C-3.68705078 28.04863281 -4.31160156 26.97226563 -4.95507812 25.86328125 C-13.73963513 10.65671619 -13.73963513 10.65671619 -13 4 C-9.89369864 -1.62092626 -5.85907194 -1.4390703 0 0 Z " fill="#E6135D" transform="translate(403,1014)"/>
<path d="M0 0 C2.6496582 1.39526367 2.6496582 1.39526367 5.30078125 3.16796875 C6.27853516 3.81443359 7.25628906 4.46089844 8.26367188 5.12695312 C9.26978516 5.80693359 10.27589844 6.48691406 11.3125 7.1875 C12.30701172 7.84814453 13.30152344 8.50878906 14.32617188 9.18945312 C16.28853696 10.49469004 18.24713322 11.80561341 20.20166016 13.12255859 C22.02614195 14.34662638 23.85885362 15.55854212 25.70068359 16.75634766 C26.5148877 17.28663574 27.3290918 17.81692383 28.16796875 18.36328125 C28.88621826 18.82645752 29.60446777 19.28963379 30.34448242 19.7668457 C32 21 32 21 33 23 C33.49512681 27.37362014 33.49223866 29.31955244 30.875 32.9375 C27.32513537 35.48414202 26.30418216 35.58961399 22 35 C18.62108269 33.45834517 15.51814836 31.53384762 12.375 29.5625 C11.05072998 28.74966553 11.05072998 28.74966553 9.69970703 27.92041016 C2.14111675 23.22205129 -5.67811545 18.32188455 -12 12 C-12.68767908 4.89398281 -12.68767908 4.89398281 -10.125 1.5625 C-6.31208538 -1.24111369 -4.6142458 -1.09444725 0 0 Z " fill="#E6135D" transform="translate(535,1169)"/>
<path d="M0 0 C2.60679114 2.91347245 3.125 4.4788517 3.125 8.375 C1.79457058 11.95052906 0.6377714 13.1074671 -2.75 14.875 C-5.10750049 15.77214606 -7.48975111 16.58980221 -9.87109375 17.421875 C-16.54607965 19.84342465 -22.09094956 22.51731577 -27.75390625 26.82421875 C-31.26146736 29.38867871 -33.01306398 30.42036505 -37.4375 30.1875 C-42.20857825 29.0597906 -42.20857825 29.0597906 -43.875 26.375 C-44.8702582 23.10486591 -45.16225978 21.17522366 -44 17.9375 C-38.73180878 11.58468117 -32.02613002 7.73034053 -24.75 4.0625 C-24.08137939 3.72500732 -23.41275879 3.38751465 -22.72387695 3.03979492 C-15.67216238 -0.39614583 -7.39322617 -4.17878001 0 0 Z " fill="#E6135D" transform="translate(430.875,510.625)"/>
<path d="M0 0 C3.62302253 6.40191817 6.30681238 13.27627076 9.125 20.0625 C9.56714844 21.11244141 10.00929688 22.16238281 10.46484375 23.24414062 C16.38588993 37.45644029 16.38588993 37.45644029 15.3125 41.75 C13.02325581 45.6744186 13.02325581 45.6744186 11 47 C7.05047172 47.51197589 4.85366162 47.54659323 1.46362305 45.37597656 C-1.41639104 42.5984226 -2.54196624 40.2460627 -4.04296875 36.546875 C-4.2975032 35.92782288 -4.55203766 35.30877075 -4.81428528 34.67095947 C-5.34770296 33.36589794 -5.87426684 32.05801613 -6.39428711 30.74755859 C-7.18194406 28.7639916 -7.99024418 26.78991318 -8.80273438 24.81640625 C-15.64363859 8.04449905 -15.64363859 8.04449905 -13.9375 2.625 C-9.96804728 -2.7529682 -5.90013316 -2.78915386 0 0 Z " fill="#E6135D" transform="translate(376,952)"/>
<path d="M0 0 C3.95900547 0.74231353 5.20658346 1.60147847 8 4.5625 C9.57634925 8.33894755 10.59211603 12.23289333 11.625 16.1875 C12.20028434 18.28391908 12.77580284 20.38027391 13.3515625 22.4765625 C13.62444092 23.49637207 13.89731934 24.51618164 14.1784668 25.56689453 C15.17880077 29.2144719 16.28388452 32.82422577 17.41967773 36.43164062 C18.28972333 39.62632214 18.45831214 42.28884189 18 45.5625 C15.84524379 48.83772945 14.3358577 49.46479594 10.5625 50.5625 C7 50.5625 7 50.5625 4.46875 49.11328125 C1.12985393 45.66344085 0.21536185 42.30413008 -1.0625 37.75 C-1.3114502 36.90920898 -1.56040039 36.06841797 -1.81689453 35.20214844 C-2.56268021 32.66041853 -3.28258514 30.1123601 -4 27.5625 C-4.42259594 26.11571554 -4.84573349 24.66908912 -5.26953125 23.22265625 C-6.96860032 17.25089619 -8.45123778 11.84222581 -8 5.5625 C-5.54999553 2.17572911 -4.13607554 0.77551416 0 0 Z " fill="#E6135D" transform="translate(349,884.4375)"/>
<path d="M0 0 C2.4375 1.375 2.4375 1.375 4 4 C4.72250054 12.53368558 3.73752631 21.3517577 3.1875 29.875 C3.11724609 31.16664063 3.04699219 32.45828125 2.97460938 33.7890625 C2.89404297 35.03171875 2.81347656 36.274375 2.73046875 37.5546875 C2.66239014 38.67343262 2.59431152 39.79217773 2.52416992 40.94482422 C1.95219971 44.27860867 0.98727912 46.28250563 -1 49 C-4.13400885 50.56700442 -7.63155095 50.85164561 -11 50 C-13.81839831 47.35405613 -14.89722308 45.70114764 -15.4609375 41.85546875 C-15.36040361 37.56449962 -15.23301867 33.28593658 -15 29 C-14.95069336 28.00645508 -14.90138672 27.01291016 -14.85058594 25.98925781 C-14.67820377 22.76127858 -14.47060179 19.53752291 -14.25 16.3125 C-14.1886084 15.27311279 -14.1272168 14.23372559 -14.06396484 13.1628418 C-13.62899232 7.65364014 -13.3079404 3.90509864 -9 0 C-5.81452856 -1.59273572 -3.39809153 -0.76164121 0 0 Z " fill="#E6135D" transform="translate(337,681)"/>
<path d="M0 0 C6.49936324 3.75685737 6.49936324 3.75685737 8.828125 7.25 C9.39873518 11.65184998 9.33568562 13.54837208 6.703125 17.1875 C3.18773082 19.70941322 2.08309004 19.78559001 -2.171875 19.25 C-5.14987392 17.9261543 -7.88895209 16.25202542 -10.671875 14.5625 C-17.43917748 10.6004409 -23.82099442 7.6437632 -31.3515625 5.3828125 C-34.46264901 4.13320711 -36.04166266 2.81221345 -38.171875 0.25 C-39.50561386 -3.12880511 -39.26731812 -4.47957783 -38.046875 -7.9375 C-30.04498926 -19.94032861 -9.2118707 -5.08241142 0 0 Z " fill="#E6135D" transform="translate(489.171875,522.75)"/>
<path d="M0 0 C5.52980337 0.80271339 8.04566896 3.67998381 11.875 7.5625 C12.4628125 8.14902344 13.050625 8.73554687 13.65625 9.33984375 C14.80469559 10.49089944 15.94922213 11.64587829 17.08984375 12.8046875 C21.26675723 16.917622 25.77288913 20.67163324 30.3125 24.375 C33.72685781 27.28969569 33.81007453 27.89160347 34.25 32.4375 C34.20115897 35.79532073 34.0415357 36.36657565 31.75 39.0625 C28.18760318 40.92114182 26.83870039 41.40097508 22.875 40.5625 C15.26709237 36.01010091 8.79621148 29.05907245 2.38037109 22.97998047 C1.03441385 21.71260652 -0.3311684 20.46614966 -1.69921875 19.22265625 C-4.77568404 16.34502894 -6.8282504 14.3590384 -8.3125 10.375 C-7.96170577 5.11308655 -5.28249066 0.95084832 0 0 Z " fill="#E6135D" transform="translate(478.125,1123.4375)"/>
<path d="M0 0 C4.16225596 3.1778863 4.75521449 6.12546442 5.5625 11.1875 C5.79939798 12.61850303 6.03638005 14.04949213 6.2734375 15.48046875 C6.39041992 16.22087402 6.50740234 16.9612793 6.62792969 17.72412109 C7.0012085 20.00739218 7.41862786 22.27811871 7.8515625 24.55078125 C8.06123657 25.66706909 8.06123657 25.66706909 8.27514648 26.8059082 C8.54197602 28.22568148 8.81210356 29.64484059 9.08618164 31.06323242 C11.27906019 43.13954881 11.27906019 43.13954881 7.9375 48 C4.25623347 50.50639423 2.37098953 50.71525283 -2 50 C-7.53906687 45.59531767 -7.76741791 39.62678545 -9 33 C-9.13825195 32.278125 -9.27650391 31.55625 -9.41894531 30.8125 C-13.20090615 10.86969972 -13.20090615 10.86969972 -12 4 C-8.53106423 -0.85651008 -5.65418133 -1.47008715 0 0 Z " fill="#E6135D" transform="translate(340,818)"/>
<path d="M0 0 C1.77269 0.82322612 3.54612628 1.6448472 5.3203125 2.46484375 C6.17399414 2.8604248 7.02767578 3.25600586 7.90722656 3.66357422 C11.90636983 5.46992699 15.98844685 7.04328856 20.09765625 8.58203125 C22.70381875 9.9563568 23.83050518 11.21825885 25.3125 13.75 C25.80324537 17.67596294 25.94957739 19.8188869 23.6875 23.125 C20.76319085 25.1258431 18.83996358 25.46112092 15.3125 25.75 C12.2956543 24.93310547 12.2956543 24.93310547 9.13671875 23.6171875 C7.97849609 23.14023438 6.82027344 22.66328125 5.62695312 22.171875 C4.43005859 21.66140625 3.23316406 21.1509375 2 20.625 C0.81470703 20.13773438 -0.37058594 19.65046875 -1.59179688 19.1484375 C-18.22754371 12.20995629 -18.22754371 12.20995629 -22.6875 7.75 C-23.24862224 0.79208417 -23.24862224 0.79208417 -21.375 -2.6875 C-15.20567366 -8.3998392 -6.28160492 -2.97329697 0 0 Z " fill="#E6135D" transform="translate(604.6875,1208.25)"/>
<path d="M0 0 C5.50038615 1.74127681 9.3570544 8.30645999 12.84765625 12.7265625 C13.36553711 13.38197021 13.88341797 14.03737793 14.41699219 14.71264648 C15.47119402 16.0505097 16.52361755 17.38977617 17.57421875 18.73046875 C18.99452844 20.53316951 20.43408328 22.31850063 21.87890625 24.1015625 C22.69359375 25.1328125 23.50828125 26.1640625 24.34765625 27.2265625 C25.0746875 28.13535156 25.80171875 29.04414062 26.55078125 29.98046875 C28.39234831 33.17530857 28.51739222 35.03134761 28.09765625 38.6640625 C26.59765625 41.5390625 26.59765625 41.5390625 24.09765625 43.6640625 C17.49737496 44.60695983 17.49737496 44.60695983 13.66796875 42.02734375 C10.74760473 39.34220662 8.31221737 36.42951398 5.91015625 33.2890625 C5.44182373 32.68126953 4.97349121 32.07347656 4.4909668 31.44726562 C3.51349384 30.17128885 2.53998869 28.89226349 1.5703125 27.61035156 C0.59134412 26.31652929 -0.39301733 25.02676944 -1.3828125 23.74121094 C-2.80140981 21.89380171 -4.19837157 20.03195581 -5.58984375 18.1640625 C-6.02385498 17.60154785 -6.45786621 17.0390332 -6.9050293 16.45947266 C-9.61805995 12.74282549 -10.50206228 10.24255878 -9.90234375 5.6640625 C-7.45989882 0.98270971 -5.25096723 0.10439299 0 0 Z " fill="#E6135D" transform="translate(435.90234375,1071.3359375)"/>
<path d="M0 0 C1.9375 0.34765625 1.9375 0.34765625 4.375 1.97265625 C6.4276397 5.0926686 6.87856548 6.55900871 6.9375 10.34765625 C5.42675796 14.08518324 3.40915481 17.49852465 1.375 20.97265625 C0.25733975 22.93909647 -0.85856169 24.90653744 -1.97265625 26.875 C-2.51035645 27.81714355 -3.04805664 28.75928711 -3.60205078 29.72998047 C-5.86981914 33.79467662 -7.84740623 37.96974264 -9.78125 42.203125 C-11.265642 44.68767137 -12.55102471 45.91653625 -15.0625 47.34765625 C-17.87024431 47.6440592 -20.37131405 47.17615298 -23.0625 46.34765625 C-25.77492628 44.14380989 -26.01074758 42.79540195 -26.41015625 39.33984375 C-26.32404296 34.08146541 -23.80640595 29.71212237 -21.5 25.09765625 C-21.04616943 24.16904785 -20.59233887 23.24043945 -20.12475586 22.28369141 C-8.88634399 -0.3757094 -8.88634399 -0.3757094 0 0 Z " fill="#E6135D" transform="translate(374.0625,549.65234375)"/>
<path d="M0 0 C2.88381579 2.58803981 3.8491179 4.19529549 4.5625 8 C3.97296447 11.14418947 3.14499051 12.65900013 0.83081055 14.84960938 C-3.23060832 17.40160373 -8.20678715 17.63216858 -12.875 18.25 C-13.99165039 18.40984375 -15.10830078 18.5696875 -16.25878906 18.734375 C-19.50288624 19.18507446 -22.7493341 19.59975852 -26 20 C-26.84272461 20.10892578 -27.68544922 20.21785156 -28.55371094 20.33007812 C-39.84365443 21.73091276 -39.84365443 21.73091276 -43.82421875 19.21484375 C-46 17 -46 17 -47.0625 13.5625 C-47 10 -47 10 -45.625 7.1875 C-39.39732609 1.99777174 -28.20268795 1.99605325 -20.375 0.8125 C-19.18648437 0.62236328 -17.99796875 0.43222656 -16.7734375 0.23632812 C-5.50932928 -1.46711681 -5.50932928 -1.46711681 0 0 Z " fill="#E6135D" transform="translate(897,1237)"/>
<path d="M0 0 C3.65907504 0.68607657 5.35167676 1.98984314 8 4.5625 C10.56796446 9.69842892 9.86743976 17.33520692 10.20458984 23.04638672 C10.31779979 24.88402092 10.44207542 26.72100825 10.57763672 28.55712891 C10.77288709 31.20900127 10.93304375 33.8610132 11.0859375 36.515625 C11.1855629 37.73937836 11.1855629 37.73937836 11.28720093 38.987854 C11.48637191 43.13231467 11.31754078 45.74512734 8.71337891 49.08496094 C6 51.5625 6 51.5625 2.5 52.25 C-1.90433981 51.38486182 -3.34834088 50.15003881 -6 46.5625 C-7.57521155 39.36594527 -7.67533228 31.90334395 -8 24.5625 C-8.0611499 23.31726563 -8.0611499 23.31726563 -8.12353516 22.046875 C-8.23735271 19.48961259 -8.31139107 16.93396016 -8.375 14.375 C-8.41310791 13.57360596 -8.45121582 12.77221191 -8.49047852 11.9465332 C-8.55191691 7.65540253 -8.38581105 6.06057045 -5.6640625 2.546875 C-3 0.5625 -3 0.5625 0 0 Z " fill="#E6135D" transform="translate(330,748.4375)"/>
<path d="M0 0 C0.88631104 -0.01426025 1.77262207 -0.02852051 2.68579102 -0.04321289 C3.44303467 -0.05739258 4.20027832 -0.07157227 4.98046875 -0.08618164 C6.93969727 0.08178711 6.93969727 0.08178711 10.00219727 1.64428711 C12.58256732 4.89055912 13.01221945 6.94802234 12.93969727 11.08178711 C11.17328554 13.88368157 9.90919905 15.59703622 6.93969727 17.08178711 C-1.60998403 18.33802992 -10.31314832 18.32856947 -18.93530273 18.39428711 C-20.22694336 18.42329102 -21.51858398 18.45229492 -22.84936523 18.48217773 C-24.71334961 18.49474609 -24.71334961 18.49474609 -26.61499023 18.50756836 C-28.29310791 18.52944214 -28.29310791 18.52944214 -30.00512695 18.55175781 C-33.73989747 17.97724661 -35.39097618 16.70352883 -38.06030273 14.08178711 C-38.92331604 11.3372976 -38.69695453 8.87502519 -38.06030273 6.08178711 C-36.19015179 3.65059088 -34.77891928 2.44109538 -32.06030273 1.08178711 C-30.00092207 0.92692846 -27.93693227 0.83170706 -25.87280273 0.76538086 C-23.98754883 0.70253906 -23.98754883 0.70253906 -22.06420898 0.63842773 C-21.07638428 0.60906128 -21.07638428 0.60906128 -20.06860352 0.57910156 C-18.09563583 0.52033946 -16.12288461 0.45444844 -14.15014648 0.38842773 C-9.43387803 0.23729604 -4.71695732 0.12606148 0 0 Z " fill="#E6135D" transform="translate(820.060302734375,1243.918212890625)"/>
<path d="M0 0 C2.88381579 2.58803981 3.8491179 4.19529549 4.5625 8 C3.79284709 12.10481553 2.18875862 13.3420843 -1 16 C-3.63663268 16.97123947 -5.96615224 17.67952648 -8.6796875 18.2734375 C-9.41067657 18.4463028 -10.14166565 18.61916809 -10.89480591 18.79727173 C-12.43420507 19.15694175 -13.97570079 19.50774222 -15.51904297 19.85009766 C-17.86634949 20.37307268 -20.20424597 20.92830537 -22.54296875 21.48828125 C-24.04642717 21.83527941 -25.55032169 22.18039455 -27.0546875 22.5234375 C-28.09252884 22.77013687 -28.09252884 22.77013687 -29.15133667 23.02182007 C-33.71685772 24.0125846 -37.44554165 24.04518168 -42 23 C-44.5 20.875 -44.5 20.875 -46 18 C-46 14.21454087 -45.72928 11.95432906 -43.41137695 8.92114258 C-40.31202455 6.45189037 -37.20506719 5.67487773 -33.41796875 4.82421875 C-32.68556473 4.64993851 -31.95316071 4.47565826 -31.19856262 4.2960968 C-29.65281986 3.93211626 -28.10536564 3.57533763 -26.55639648 3.2253418 C-24.20099352 2.69056361 -21.8537256 2.12739203 -19.50585938 1.56054688 C-17.99779689 1.20921154 -16.48934396 0.85954713 -14.98046875 0.51171875 C-14.28543747 0.34411545 -13.59040619 0.17651215 -12.87431335 0.00382996 C-8.29660269 -1.00691778 -4.56911523 -1.05941783 0 0 Z " fill="#E6135D" transform="translate(964,1223)"/>
<path d="M0 0 C2.25517251 0.22431873 4.51038055 0.44828063 6.765625 0.671875 C7.84392578 0.78595703 8.92222656 0.90003906 10.03320312 1.01757812 C14.53096348 1.46468926 19.03155457 1.67559803 23.546875 1.87109375 C27.50894329 2.58401368 30.18965197 4.50215197 33 7.3125 C33.4375 10.625 33.4375 10.625 33 14.3125 C30.55687944 17.39315019 29.04708204 19.09477569 25.14453125 19.90625 C21.085936 19.7920574 17.04807578 19.61798648 13 19.3125 C11.95730957 19.23999023 10.91461914 19.16748047 9.84033203 19.09277344 C6.34716852 18.83122127 2.86229841 18.51780702 -0.625 18.1875 C-2.33272583 18.04924805 -2.33272583 18.04924805 -4.07495117 17.90820312 C-13.14857231 16.92924452 -13.14857231 16.92924452 -16.265625 13.421875 C-18 10.3125 -18 10.3125 -18.125 6.6875 C-15.06378027 -2.49615918 -8.07954952 -0.9201775 0 0 Z " fill="#E6135D" transform="translate(731,1241.6875)"/>
<path d="M0 0 C5.77875738 0.59679013 11.38546413 2.02713897 17.00756836 3.44604492 C19.18599792 3.99138628 21.37026565 4.50605495 23.55639648 5.01953125 C24.95789332 5.36600252 26.35895277 5.71424889 27.75952148 6.06445312 C29.01667969 6.37342529 30.27383789 6.68239746 31.5690918 7.00073242 C35.40574013 8.48641682 37.33791554 10.13673371 39.93139648 13.30273438 C40.6286337 17.02133287 40.18366544 18.77526291 38.55639648 22.17773438 C34.5545534 25.41732163 30.92572252 24.7532843 25.93139648 24.30273438 C20.95791438 23.43437104 16.08007954 22.26871953 11.18139648 21.05273438 C9.88079024 20.7485996 8.58000957 20.44520974 7.27905273 20.14257812 C5.41313477 19.68818359 5.41313477 19.68818359 3.50952148 19.22460938 C2.38964844 18.95229492 1.26977539 18.67998047 0.1159668 18.39941406 C-3.93581018 17.00409191 -8.07957417 15.28079306 -10.06860352 11.30273438 C-10.470522 7.68546801 -10.26969204 5.70491142 -8.63110352 2.42773438 C-5.6067777 -0.08024313 -3.84186728 -0.09595962 0 0 Z " fill="#E6135D" transform="translate(656.068603515625,1227.697265625)"/>
<path d="M0 0 C2.26275631 1.61625451 2.95297288 2.56909059 3.75 5.25 C3.67793168 9.2858261 3.58374145 11.43626602 0.64404297 14.30541992 C-2.59620999 16.48262718 -5.79757935 17.72333881 -9.4921875 18.86328125 C-10.17878448 19.08195358 -10.86538147 19.30062592 -11.57278442 19.52592468 C-13.01829303 19.98256686 -14.46559879 20.43355489 -15.91455078 20.87915039 C-18.11742664 21.56015873 -20.31037503 22.26806316 -22.50390625 22.97851562 C-23.91614898 23.42092675 -25.32889479 23.86173585 -26.7421875 24.30078125 C-27.39033417 24.51213211 -28.03848083 24.72348297 -28.70626831 24.9412384 C-33.21587528 26.29537234 -36.67632794 26.33297995 -41.25 25.25 C-43.75 23.125 -43.75 23.125 -45.25 20.25 C-45.25 16.43529487 -45.00096913 14.19296628 -42.60180664 11.18041992 C-39.71458879 8.8105215 -37.19763303 7.99042892 -33.62109375 6.92578125 C-32.67472801 6.63818184 -32.67472801 6.63818184 -31.70924377 6.34477234 C-29.70537005 5.73868334 -27.69679881 5.15032293 -25.6875 4.5625 C-24.33363091 4.15677658 -22.98011076 3.74988684 -21.62695312 3.34179688 C-19.1497148 2.59594746 -16.67057274 1.85841802 -14.18920898 1.1262207 C-4.91535122 -1.63845041 -4.91535122 -1.63845041 0 0 Z " fill="#E6135D" transform="translate(1030.25,1203.75)"/>
<path d="M0 0 C3.38677089 2.45000447 4.78698584 3.86392446 5.5625 8 C4.83835825 11.86208936 3.77456958 13.19143876 1 16 C-2.01423066 17.72377573 -5.15645283 19.01968418 -8.375 20.3125 C-9.21289062 20.67150391 -10.05078125 21.03050781 -10.9140625 21.40039062 C-15.3868565 23.24647305 -19.07720653 24.61907857 -24 24 C-26.875 22.5 -26.875 22.5 -29 20 C-29.84577114 14.67164179 -29.84577114 14.67164179 -29 12 C-25.2427794 7.31075569 -21.05829274 5.33896994 -15.625 3.1875 C-14.53058594 2.72053711 -14.53058594 2.72053711 -13.4140625 2.24414062 C-8.81195033 0.37453256 -5.04554082 -0.53275897 0 0 Z " fill="#E6135D" transform="translate(383,0)"/>
<path d="M0 0 C2.375 1.5625 2.375 1.5625 4 4 C4.55852776 6.775541 4.72907902 9.25523194 4 12 C0.66727864 16.73209607 -4.63074023 18.05880614 -9.875 19.875 C-10.76058594 20.20757813 -11.64617187 20.54015625 -12.55859375 20.8828125 C-16.68541792 22.33427376 -19.16164399 23.17419175 -23.515625 22.26953125 C-27.66650786 20.148404 -27.66650786 20.148404 -29 18 C-29.49604739 14.17334867 -29.5129196 11.88405655 -27.55859375 8.515625 C-24.01311432 5.02968797 -20.26202275 3.75078541 -15.625 2.125 C-14.78710938 1.8053125 -13.94921875 1.485625 -13.0859375 1.15625 C-8.37333202 -0.54799412 -4.96086723 -1.54456449 0 0 Z " fill="#E6135D" transform="translate(1079,1186)"/>
</svg>
