<?xml version="1.0" encoding="UTF-8"?>
<svg version="1.1" xmlns="http://www.w3.org/2000/svg" width="715" height="1015">
<path d="M0 0 C4.86311492 4.21558552 7.35669208 9.69891935 10.3125 15.3125 C10.87517578 16.33279297 11.43785156 17.35308594 12.01757812 18.40429688 C16.47772712 26.84964632 16.47772712 26.84964632 15.9921875 31.1015625 C15 34 15 34 12.8125 36.0625 C10 37 10 37 6.8125 36.4375 C3.70287122 34.84813418 3.3260095 34.07307415 2 31 C1.3709375 31.13277344 0.741875 31.26554687 0.09375 31.40234375 C-23.31004103 36.23113798 -23.31004103 36.23113798 -29.6875 32.375 C-31.38115483 29.31029126 -31.51410062 27.45181843 -31 24 C-29.30681447 21.67887811 -28.23939759 21.0615802 -25.43359375 20.33984375 C-24.44488281 20.20707031 -23.45617187 20.07429688 -22.4375 19.9375 C-16.91177928 19.13657337 -11.46553548 18.13663791 -6 17 C-6.30035156 16.49210937 -6.60070312 15.98421875 -6.91015625 15.4609375 C-8.82256122 11.99916036 -10 9.70454895 -10 5.6875 C-8.19189059 0.82820596 -5.12029579 -0.89605176 0 0 Z " fill="#4B4444" transform="translate(392,472)"/>
<path d="M0 0 C4.36046549 4.66085311 7.23904592 10.39215758 10.3125 15.9375 C10.87517578 16.91396484 11.43785156 17.89042969 12.01757812 18.89648438 C12.54416016 19.84716797 13.07074219 20.79785156 13.61328125 21.77734375 C14.33704956 23.06499634 14.33704956 23.06499634 15.07543945 24.37866211 C16.2307169 27.65413449 15.86277717 29.67147964 15 33 C13.8125 34.875 13.8125 34.875 12 36 C9.0625 36.4375 9.0625 36.4375 6 36 C1.11051285 31.80738041 -1.65178556 26.20582478 -4.8125 20.6875 C-5.42287109 19.66720703 -6.03324219 18.64691406 -6.66210938 17.59570312 C-11.50826767 9.14360968 -11.50826767 9.14360968 -11.02734375 4.89453125 C-10 2 -10 2 -7.75 0 C-4.50262252 -1.18086454 -3.1940339 -1.31037288 0 0 Z " fill="#4B4444" transform="translate(550,34)"/>
<path d="M0 0 C4.49907846 5.17216894 5.96045022 11.51586801 7.8125 18 C8.13669922 19.06734375 8.46089844 20.1346875 8.79492188 21.234375 C9.09591797 22.27078125 9.39691406 23.3071875 9.70703125 24.375 C9.9800708 25.31085938 10.25311035 26.24671875 10.53442383 27.2109375 C11.07310153 30.4379192 10.78436821 32.83462365 10 36 C8.3125 37.9375 8.3125 37.9375 6 39 C2.96384959 38.87607549 0.88751747 38.6833494 -1.55371094 36.80371094 C-4.79970615 32.75553189 -5.75789165 27.14198381 -7.25 22.25 C-7.62640625 21.08210938 -8.0028125 19.91421875 -8.390625 18.7109375 C-11.83099169 7.55504258 -11.83099169 7.55504258 -10 2 C-6.25401267 -0.49732489 -4.42998969 -0.62175294 0 0 Z " fill="#4B4444" transform="translate(594,129)"/>
<path d="M0 0 C4.60117735 4.49484762 6.74558873 10.63148841 9.25 16.4375 C9.70890625 17.46166016 10.1678125 18.48582031 10.640625 19.54101562 C11.07375 20.53681641 11.506875 21.53261719 11.953125 22.55859375 C12.34661133 23.45892334 12.74009766 24.35925293 13.14550781 25.28686523 C14.11474593 28.36433472 14.25741489 30.79095013 14 34 C12.4375 36.4375 12.4375 36.4375 10 38 C6.5625 38.25 6.5625 38.25 3 37 C-1.2393046 31.95278856 -3.78040769 25.45782574 -6.3125 19.4375 C-6.67150391 18.62603516 -7.03050781 17.81457031 -7.40039062 16.97851562 C-9.44092442 12.16285587 -10.58377376 8.32951106 -10 3 C-7.16943492 -0.37490452 -4.24049673 -0.70674945 0 0 Z " fill="#4B4444" transform="translate(574,80)"/>
<path d="M0 0 C2.9375 0.9375 2.9375 0.9375 4.875 2.5625 C6.67621353 6.58874201 5.54286221 10.31594023 4.05541992 14.30029297 C2.93754602 16.91144806 1.76384975 19.4887222 0.5625 22.0625 C0.16289063 22.94292969 -0.23671875 23.82335937 -0.6484375 24.73046875 C-6.00264494 36.40757247 -6.00264494 36.40757247 -9.0625 37.9375 C-12.62750476 38.32500052 -14.44730006 38.33185894 -17.5 36.375 C-19.27477151 33.60635645 -19.21486451 32.34778604 -18.6706543 29.17797852 C-17.29849803 24.1228689 -14.95043218 19.42426475 -12.75 14.6875 C-12.26337891 13.59953125 -11.77675781 12.5115625 -11.27539062 11.390625 C-10.79650391 10.3490625 -10.31761719 9.3075 -9.82421875 8.234375 C-9.39069092 7.28916992 -8.95716309 6.34396484 -8.51049805 5.37011719 C-6.25166527 1.57530858 -4.47901539 -0.09140848 0 0 Z " fill="#4B4444" transform="translate(593.0625,334.0625)"/>
<path d="M0 0 C2.534112 2.534112 2.39257035 4.46230017 2.65625 7.9296875 C1.80780534 10.6063284 0.36618171 11.59558812 -1.99414062 13.01806641 C-6.16421766 15.05945514 -10.57350159 16.3821298 -15 17.75 C-15.97195313 18.06582031 -16.94390625 18.38164062 -17.9453125 18.70703125 C-29.20471573 22.25052191 -29.20471573 22.25052191 -34.375 19.9375 C-36 18 -36 18 -36.5 14.5625 C-35.89773901 10.27139048 -35.40197086 9.59124477 -32 7 C-28.75526529 5.7060622 -25.43115075 4.78910623 -22.0625 3.875 C-20.28200011 3.37435475 -18.50203391 2.87180685 -16.72265625 2.3671875 C-15.89306396 2.13515625 -15.06347168 1.903125 -14.20874023 1.6640625 C-11.85495573 0.99610334 -11.85495573 0.99610334 -9.1015625 -0.1953125 C-5.87365666 -1.43127645 -3.30401256 -0.74807831 0 0 Z " fill="#4B4444" transform="translate(449,476)"/>
<path d="M0 0 C2.17137826 2.52160055 2.93269707 4.12506195 3.1875 7.4375 C0.03658299 14.23684723 -9.2715387 18.0641146 -15.625 21.4375 C-16.44484375 21.89576172 -17.2646875 22.35402344 -18.109375 22.82617188 C-21.85898609 24.82455785 -24.15739981 26.03415947 -28.46875 25.859375 C-31.22028117 24.92521318 -32.46454444 24.47378952 -34 22 C-34.4375 19.0625 -34.4375 19.0625 -34 16 C-29.71844998 10.95985889 -23.8453713 8.30615665 -18.125 5.1875 C-17.04863281 4.57712891 -15.97226562 3.96675781 -14.86328125 3.33789062 C-13.81785156 2.76619141 -12.77242188 2.19449219 -11.6953125 1.60546875 C-10.74672363 1.08106201 -9.79813477 0.55665527 -8.82080078 0.01635742 C-5.40397219 -1.21475366 -3.4619004 -1.00592568 0 0 Z " fill="#4B4444" transform="translate(496,453)"/>
<path d="M0 0 C1.69775391 1.06860352 1.69775391 1.06860352 3 3 C3.38818359 6.21459961 3.38818359 6.21459961 3.3984375 10.15234375 C3.40274277 11.1971566 3.40274277 11.1971566 3.40713501 12.26307678 C3.40917451 13.73488173 3.40365252 15.20671385 3.39111328 16.6784668 C3.37508032 18.92623881 3.39095132 21.17220634 3.41015625 23.41992188 C3.40817332 24.85156646 3.40432861 26.28320992 3.3984375 27.71484375 C3.39505371 29.01542725 3.39166992 30.31601074 3.38818359 31.65600586 C2.98098607 35.16379487 2.50561675 36.56646871 0 39 C-2.875 40 -2.875 40 -6 40 C-8.66040039 38.43945312 -8.66040039 38.43945312 -11 36 C-11.59936523 32.76367188 -11.59936523 32.76367188 -11.55859375 28.96875 C-11.55626236 28.29581909 -11.55393097 27.62288818 -11.55152893 26.92956543 C-11.54181106 25.51069411 -11.52006812 24.09186047 -11.48706055 22.67333984 C-11.43765734 20.50689979 -11.42557907 18.34273378 -11.41992188 16.17578125 C-11.29971335 4.38765663 -11.29971335 4.38765663 -9 1 C-5.95016004 -0.52491998 -3.3576631 -0.23562548 0 0 Z " fill="#4B4444" transform="translate(613,232)"/>
<path d="M0 0 C3.1875 0.625 3.1875 0.625 5.125 1.6875 C6.9841865 5.07778126 6.92953948 6.79112935 6.1875 10.625 C3.61905491 14.11545102 0.469262 16.81521184 -2.8125 19.625 C-3.369375 20.11178223 -3.92625 20.59856445 -4.5 21.10009766 C-6.29274233 22.65449568 -8.10907429 24.17529761 -9.9375 25.6875 C-10.51064941 26.17702148 -11.08379883 26.66654297 -11.67431641 27.17089844 C-14.87031926 29.72295101 -16.42022166 30.5856114 -20.625 31.0078125 C-23.8125 30.625 -23.8125 30.625 -25.6875 29.4375 C-27.13591076 27.10394933 -27.61184207 25.36732501 -27.8125 22.625 C-26.42359964 18.20319477 -22.74260053 15.97061847 -19.1875 13.3125 C-15.05726885 10.17684659 -11.10981841 7.04708781 -7.375 3.4375 C-4.60833399 0.96174952 -3.88620694 0.6370831 0 0 Z " fill="#4B4444" transform="translate(533.8125,420.375)"/>
<path d="M0 0 C2.74657236 1.72932334 3.0751421 3.23868666 4.0625 6.375 C8.42109218 26.37324649 8.42109218 26.37324649 7 36 C5.69921875 37.8125 5.69921875 37.8125 4 39 C-2.11214393 39.65487256 -2.11214393 39.65487256 -4.65234375 37.78125 C-6.3438358 35.54553876 -6.63976962 33.89121628 -7.0625 31.125 C-7.21589844 30.15046875 -7.36929688 29.1759375 -7.52734375 28.171875 C-7.76130859 26.60179687 -7.76130859 26.60179687 -8 25 C-8.18691406 23.91203125 -8.37382813 22.8240625 -8.56640625 21.703125 C-9.62347195 15.40508323 -10.51483334 9.38393339 -10 3 C-6.84940051 -0.79483972 -4.72726308 -1.3835892 0 0 Z " fill="#4B4444" transform="translate(607,180)"/>
<path d="M0 0 C3.5 0.4375 3.5 0.4375 5.375 1.5625 C9.06570877 7.71368128 6.73921848 14.42936843 5.25 20.9375 C5.03214844 21.95714844 4.81429687 22.97679687 4.58984375 24.02734375 C1.92467078 36.01282922 1.92467078 36.01282922 -1.5 39.4375 C-7.73076923 39.89903846 -7.73076923 39.89903846 -10.375 38.3125 C-13.08585016 33.79441639 -12.52545934 29.23744437 -11.390625 24.3046875 C-11.13023437 23.16902344 -10.86984375 22.03335937 -10.6015625 20.86328125 C-10.32054687 19.69152344 -10.03953125 18.51976562 -9.75 17.3125 C-9.35167969 15.54326172 -9.35167969 15.54326172 -8.9453125 13.73828125 C-5.89843979 0.73730497 -5.89843979 0.73730497 0 0 Z " fill="#4B4444" transform="translate(605.5,283.5625)"/>
<path d="M0 0 C3.625 0.25 3.625 0.25 5.5625 1.3125 C7.2536413 4.3963459 6.9386672 6.77827442 6.625 10.25 C5.2306169 12.77968457 3.93370039 14.81297366 2.1875 17.0625 C1.73592529 17.66271973 1.28435059 18.26293945 0.8190918 18.88134766 C-0.55796407 20.68838759 -1.96261677 22.4704973 -3.375 24.25 C-4.17421875 25.28253906 -4.9734375 26.31507813 -5.796875 27.37890625 C-11.2755819 34.01947685 -11.2755819 34.01947685 -16.25 35.0625 C-19.375 34.25 -19.375 34.25 -21.3125 33.1875 C-23.03401698 30.04826315 -22.75976504 27.7884 -22.375 24.25 C-20.82794667 21.48183907 -18.8363682 19.18982535 -16.75 16.8125 C-15.64633178 15.49937295 -14.54345914 14.18557678 -13.44140625 12.87109375 C-12.91047363 12.24831543 -12.37954102 11.62553711 -11.83251953 10.98388672 C-10.03185779 8.84179296 -8.34600659 6.62844999 -6.6875 4.375 C-3.65007837 0.27037618 -3.65007837 0.27037618 0 0 Z " fill="#4B4444" transform="translate(567.375,380.75)"/>
<path d="M0 0 C1.18638062 0.00713013 1.18638062 0.00713013 2.39672852 0.0144043 C3.20118408 0.01851318 4.00563965 0.02262207 4.83447266 0.02685547 C10.1298004 0.07533125 15.4202427 0.18382337 20.70922852 0.4519043 C21.90418945 0.50991211 23.09915039 0.56791992 24.33032227 0.62768555 C27.45788958 1.17179088 28.43999868 1.6113662 30.27172852 4.1394043 C31.41518691 6.77815443 31.32003477 7.95496222 30.58422852 10.7644043 C29.01797648 13.59857464 28.27182101 14.0353325 25.27172852 15.1394043 C21.12700019 15.38897432 17.00225707 15.19026128 12.85449219 15.02783203 C10.84459083 14.95229374 8.83520971 14.90320309 6.82446289 14.85620117 C5.55022461 14.81172852 4.27598633 14.76725586 2.96313477 14.72143555 C1.79983643 14.68252197 0.63653809 14.6436084 -0.56201172 14.60351562 C-4.00554596 14.09876132 -5.96008767 13.22050617 -8.72827148 11.1394043 C-9.72827148 8.7644043 -9.72827148 8.7644043 -9.72827148 6.1394043 C-6.99994504 0.68275142 -6.0548365 0.01797478 0 0 Z " fill="#4B4444" transform="translate(317.728271484375,492.860595703125)"/>
<path d="M0 0 C2.4375 1.5625 2.4375 1.5625 4 4 C4.375 7.3125 4.375 7.3125 3 11 C-2.07539681 16.01862504 -8.9202306 19.18724856 -15.1875 22.5 C-15.85209229 22.86279053 -16.51668457 23.22558105 -17.20141602 23.59936523 C-21.78649735 25.91780549 -24.87172612 26.48164326 -30 25 C-32.32749345 21.50875983 -32.50299316 20.10777749 -32 16 C-28.71258531 11.81133586 -24.21332935 9.79270222 -19.5625 7.4375 C-18.06316708 6.66659835 -16.56445303 5.89449169 -15.06640625 5.12109375 C-14.00885132 4.57859985 -14.00885132 4.57859985 -12.92993164 4.02514648 C-11.30444494 3.16171591 -9.72379171 2.21464105 -8.15625 1.25 C-5.21906746 -0.45271452 -3.33703844 -0.49700572 0 0 Z " fill="#4B4444" transform="translate(318,833)"/>
<path d="M0 0 C2 2 2 2 2.3125 4.875 C1.95798161 8.42018392 1.44460175 9.47458229 -1 12 C-3.61621094 12.92895508 -3.61621094 12.92895508 -6.734375 13.51953125 C-7.86617187 13.73673828 -8.99796875 13.95394531 -10.1640625 14.17773438 C-11.34742188 14.38720703 -12.53078125 14.59667969 -13.75 14.8125 C-15.50183594 15.15571289 -15.50183594 15.15571289 -17.2890625 15.50585938 C-30.73843293 17.99902498 -30.73843293 17.99902498 -35.9375 14.8125 C-37.56034621 12.04411529 -37.44922076 10.14454533 -37 7 C-34.04812188 3.24648525 -31.53935492 2.31364111 -26.9140625 1.4453125 C-25.14675781 1.11273437 -25.14675781 1.11273437 -23.34375 0.7734375 C-22.1165625 0.55945313 -20.889375 0.34546875 -19.625 0.125 C-18.40554687 -0.1121875 -17.18609375 -0.349375 -15.9296875 -0.59375 C-5.69679229 -2.44818298 -5.69679229 -2.44818298 0 0 Z " fill="#4B4444" transform="translate(226,871)"/>
<path d="M0 0 C6.97355681 5.14424541 17.6224771 13.54392893 19.796875 22.15625 C20.01582281 25.22151935 19.7515951 26.51089117 18 29 C15.11138291 30.44430855 13.20352299 30.37688506 10 30 C8.26916735 28.40007066 6.61284774 26.71880124 5 25 C4.02454961 24.01713111 3.04527609 23.03804389 2.0625 22.0625 C-4.0625 15.9375 -4.0625 15.9375 -5.54345703 14.44287109 C-6.95309861 13.04646115 -8.40964728 11.69790074 -9.8671875 10.3515625 C-12 8 -12 8 -12.125 4.375 C-11 1 -11 1 -8.8125 -1.0625 C-5.09058666 -2.30313778 -3.58137807 -1.49970207 0 0 Z " fill="#4B4444" transform="translate(362,435)"/>
<path d="M0 0 C1.8125 1.1875 1.8125 1.1875 3 3 C3.65900053 10.25914433 0.04117222 14.29777656 -4 20 C-4.39606445 20.5789502 -4.79212891 21.15790039 -5.20019531 21.75439453 C-6.4428851 23.56287367 -7.71595207 25.34570458 -9 27.125 C-9.58563721 27.97783569 -9.58563721 27.97783569 -10.18310547 28.84790039 C-12.50991151 31.96635428 -13.85145019 32.96099973 -17.66015625 33.9609375 C-21 34 -21 34 -23.4375 32.5 C-25.58170866 29.06926614 -25.4102319 27.00604011 -25 23 C-23.54803428 20.62485286 -22.22566145 18.7639091 -20.4375 16.6875 C-19.51617786 15.56287528 -18.59692393 14.43655322 -17.6796875 13.30859375 C-17.22432617 12.7554248 -16.76896484 12.20225586 -16.29980469 11.63232422 C-13.81483353 8.51164105 -11.66012157 5.16038176 -9.47265625 1.828125 C-6.70428349 -1.60847567 -3.89332136 -1.16799641 0 0 Z " fill="#4B4444" transform="translate(390,763)"/>
<path d="M0 0 C1.99690248 2.08755304 2.9508836 3.30095873 3.15551758 6.21337891 C2.32304191 12.35924832 1.18543774 18.35593103 -0.3125 24.375 C-0.51294922 25.25027344 -0.71339844 26.12554688 -0.91992188 27.02734375 C-2.94260319 35.23078811 -2.94260319 35.23078811 -7 38 C-10.5625 38.0625 -10.5625 38.0625 -14 37 C-16.18062502 34.26869988 -17.02305079 32.74022268 -16.91333008 29.21679688 C-16.70087646 28.22744141 -16.48842285 27.23808594 -16.26953125 26.21875 C-16.04330078 25.12949219 -15.81707031 24.04023437 -15.58398438 22.91796875 C-15.32939453 21.79003906 -15.07480469 20.66210938 -14.8125 19.5 C-14.57724609 18.37207031 -14.34199219 17.24414062 -14.09960938 16.08203125 C-11.41552052 3.51662913 -11.41552052 3.51662913 -8.25 0.125 C-5.08006357 -1.45996822 -3.3344663 -1.06419137 0 0 Z " fill="#4B4444" transform="translate(426,669)"/>
<path d="M0 0 C2.34786875 2.63674266 3.5564149 5.09010404 4.5703125 8.44921875 C4.82683594 9.29806641 5.08335937 10.14691406 5.34765625 11.02148438 C5.60417969 11.90126953 5.86070312 12.78105469 6.125 13.6875 C6.38925781 14.54794922 6.65351563 15.40839844 6.92578125 16.29492188 C11.13609507 30.4753443 11.13609507 30.4753443 8.875 35.5 C6.47521987 37.41982411 5.08112372 37.92663991 2 38 C-1.23132871 36.54230477 -2.70666339 35.58232588 -4.31787109 32.38378906 C-4.63320801 31.35479492 -4.94854492 30.32580078 -5.2734375 29.265625 C-5.62277344 28.13382813 -5.97210938 27.00203125 -6.33203125 25.8359375 C-6.67621094 24.65257812 -7.02039063 23.46921875 -7.375 22.25 C-7.74238281 21.08210937 -8.10976563 19.91421875 -8.48828125 18.7109375 C-11.74586292 7.86872229 -11.74586292 7.86872229 -10 2 C-6.95062482 -1.61407429 -4.34375767 -1.38630564 0 0 Z " fill="#4B4444" transform="translate(414,519)"/>
<path d="M0 0 C2 1.625 2 1.625 3 4 C2.64817345 10.31651388 0.31560839 15.43146599 -2.3125 21.125 C-2.70373047 22.00542969 -3.09496094 22.88585937 -3.49804688 23.79296875 C-5.54275646 28.28929531 -7.48051619 32.44423285 -11 36 C-14.37429445 36.56238241 -16.2624367 36.32996253 -19.375 34.9375 C-21.87500386 31.95672617 -21.32654318 29.8273898 -21 26 C-19.99274618 22.90111288 -18.64904827 20.00198971 -17.25 17.0625 C-16.72792969 15.92264648 -16.72792969 15.92264648 -16.1953125 14.75976562 C-15.15131608 12.49584006 -14.07995871 10.24696327 -13 8 C-12.64099609 7.23671387 -12.28199219 6.47342773 -11.91210938 5.68701172 C-8.71004725 -0.97702018 -7.2970369 -1.66423649 0 0 Z " fill="#4B4444" transform="translate(413,718)"/>
<path d="M0 0 C3.79675362 0.63279227 4.73208342 1.40518846 7 4.5 C7.32425346 7.47480237 7.42652642 10.04175011 7.3125 13 C7.29413086 13.80010498 7.27576172 14.60020996 7.25683594 15.42456055 C7.19331935 17.78439128 7.09885016 20.14142486 7 22.5 C6.96777344 23.71300781 6.93554688 24.92601562 6.90234375 26.17578125 C6.68604759 30.62926374 6.38254259 33.76325132 4.3125 37.75 C2 39.5 2 39.5 -1 40.0625 C-4.72285508 39.36446467 -5.71871748 38.4938793 -8 35.5 C-8.42578125 32.26367188 -8.42578125 32.26367188 -8.3125 28.46875 C-8.29413086 27.79581909 -8.27576172 27.12288818 -8.25683594 26.42956543 C-8.21273359 25.01047382 -8.15831268 23.59167002 -8.09423828 22.17333984 C-8.00031833 20.00734142 -7.94908832 17.84325338 -7.90234375 15.67578125 C-7.85411945 14.29417921 -7.80342062 12.91266087 -7.75 11.53125 C-7.70359375 10.27892578 -7.6571875 9.02660156 -7.609375 7.73632812 C-6.70608202 2.93903176 -4.83374846 0.80562474 0 0 Z " fill="#4B4444" transform="translate(426,617.5)"/>
<path d="M0 0 C1.13824219 -0.03996094 2.27648437 -0.07992187 3.44921875 -0.12109375 C4.95935547 -0.17716797 4.95935547 -0.17716797 6.5 -0.234375 C9.90906786 0.31612633 11.04838325 1.49599647 13.13671875 4.19140625 C13.69921875 7.19140625 13.69921875 7.19140625 13.13671875 10.19140625 C7.71789285 15.52267482 2.37550685 15.00693153 -4.86328125 15.19140625 C-5.95116943 15.2380542 -5.95116943 15.2380542 -7.06103516 15.28564453 C-9.34920927 15.38271267 -11.6362627 15.44787252 -13.92578125 15.50390625 C-14.6518457 15.53387695 -15.37791016 15.56384766 -16.12597656 15.59472656 C-19.60316842 15.63218577 -21.49859173 15.46289733 -24.32421875 13.359375 C-25.86328125 11.19140625 -25.86328125 11.19140625 -26.42578125 8.19140625 C-25.86328125 5.19140625 -25.86328125 5.19140625 -23.828125 3.05078125 C-20.1624795 0.75190475 -17.06942261 0.52215736 -12.86328125 0.44140625 C-11.74530151 0.40237183 -11.74530151 0.40237183 -10.60473633 0.36254883 C-9.08652271 0.31371028 -7.56799858 0.27369595 -6.04931641 0.24267578 C-4.03181051 0.1953588 -2.01558837 0.09986232 0 0 Z " fill="#4B4444" transform="translate(164.86328125,876.80859375)"/>
<path d="M0 0 C2.01424041 3.02136062 2.38191452 4.33864251 2.8515625 7.82421875 C2.98046875 8.77103516 3.109375 9.71785156 3.2421875 10.69335938 C3.36851562 11.68142578 3.49484375 12.66949219 3.625 13.6875 C3.7590625 14.65623047 3.893125 15.62496094 4.03125 16.62304688 C5.90254015 30.74364962 5.90254015 30.74364962 4 35.5 C1.30289758 37.52282682 -0.76115459 37.48122962 -4.0625 37.53125 C-6.84489939 36.76833404 -7.49026052 35.42081126 -9 33 C-9.6159668 30.43798828 -9.6159668 30.43798828 -9.94921875 27.5703125 C-10.07490234 26.52746094 -10.20058594 25.48460937 -10.33007812 24.41015625 C-10.44802734 23.32605469 -10.56597656 22.24195313 -10.6875 21.125 C-10.81705078 20.04863281 -10.94660156 18.97226562 -11.08007812 17.86328125 C-12.67368127 4.18696223 -12.67368127 4.18696223 -10.6875 0.6875 C-7.07289608 -2.92710392 -4.3159074 -1.83655634 0 0 Z " fill="#4B4444" transform="translate(427,569)"/>
<path d="M0 0 C2.95056134 0.48200308 5.84611511 1.1035203 8.75 1.8125 C9.42901367 1.9775 10.10802734 2.1425 10.80761719 2.3125 C14.24751392 3.24003424 16.93860312 3.98259297 19 7 C19.6031444 11.14661773 19.62680907 13.14336094 17.125 16.5625 C12.0112319 18.91483333 7.38755483 17.04852887 2.1953125 15.44140625 C-1.87705877 14.62258427 -6.09717422 14.6742651 -10.24414062 14.5703125 C-15.50038445 14.33605094 -15.50038445 14.33605094 -17.96875 12.67578125 C-19.76527196 9.75643306 -19.40707641 7.31476507 -19 4 C-14.45972286 -2.19731259 -6.89296711 -0.77092395 0 0 Z " fill="#4B4444" transform="translate(323,417)"/>
<path d="M0 0 C1.79968071 2.99946786 1.48994286 5.46886668 1.125 8.875 C-1.11591444 11.87070039 -3.72635283 12.74949106 -7.20703125 13.91796875 C-8.25310547 14.26923828 -9.29917969 14.62050781 -10.37695312 14.98242188 C-12.01567383 15.51706055 -12.01567383 15.51706055 -13.6875 16.0625 C-14.76837891 16.43052734 -15.84925781 16.79855469 -16.96289062 17.17773438 C-18.01283203 17.52513672 -19.06277344 17.87253906 -20.14453125 18.23046875 C-21.57696167 18.70456177 -21.57696167 18.70456177 -23.03833008 19.18823242 C-27.03383936 20.15555901 -30.45168787 20.5117449 -34.25 18.8125 C-35.875 16.875 -35.875 16.875 -36.3125 13.375 C-35.83963249 9.59205995 -35.72275136 9.10490432 -32.875 6.875 C-28.88044284 5.01535225 -24.70864946 3.61095747 -20.5625 2.125 C-19.43392578 1.70089844 -18.30535156 1.27679687 -17.14257812 0.83984375 C-15.49999023 0.24623047 -15.49999023 0.24623047 -13.82421875 -0.359375 C-12.82737061 -0.72256836 -11.83052246 -1.08576172 -10.8034668 -1.45996094 C-6.85090228 -2.35756708 -3.5121615 -2.1072969 0 0 Z " fill="#4B4444" transform="translate(274.875,857.125)"/>
<path d="M0 0 C0.75925781 0.07025391 1.51851562 0.14050781 2.30078125 0.21289062 C7.33568217 0.75451078 11.40382465 1.75499527 15.875 4.1875 C17.09577541 7.9176471 17.44738358 9.97913467 15.75 13.5625 C12.78203239 16.1347386 9.85086483 16.21550971 6 16.10498047 C2.62210343 15.78038572 -0.75174576 15.43237437 -4.125 15.0625 C-5.300625 14.95679688 -6.47625 14.85109375 -7.6875 14.7421875 C-17.31050241 13.69240542 -17.31050241 13.69240542 -20.40234375 10.73046875 C-22.125 8.1875 -22.125 8.1875 -22.6875 5.625 C-20.37481618 -4.39662991 -7.76267754 -0.84550604 0 0 Z " fill="#4B4444" transform="translate(60.125,873.8125)"/>
<path d="M0 0 C1.9375 1.0625 1.9375 1.0625 3 3 C3.44319304 6.25667744 3.76151282 8.81590363 1.92211914 11.67602539 C0.37784408 13.38625084 -1.23503401 14.9472065 -2.9375 16.5 C-3.52926025 17.06098389 -4.12102051 17.62196777 -4.73071289 18.19995117 C-6.4658173 19.82542051 -8.22570865 21.41750996 -10 23 C-10.8765625 23.79019531 -11.753125 24.58039062 -12.65625 25.39453125 C-15.91665774 28.13573022 -18.08691094 29.82771905 -22.3125 30.625 C-25.42635626 29.90084738 -26.92986697 29.46823554 -29 27 C-29.5625 23.625 -29.5625 23.625 -29 20 C-26.83984375 17.62109375 -26.83984375 17.62109375 -24 15 C-23.27985718 14.32420898 -23.27985718 14.32420898 -22.54516602 13.63476562 C-21.03978395 12.22481779 -19.52169505 10.82981235 -18 9.4375 C-17.49210937 8.96892578 -16.98421875 8.50035156 -16.4609375 8.01757812 C-6.75871128 -0.87612924 -6.75871128 -0.87612924 0 0 Z " fill="#4B4444" transform="translate(358,802)"/>
<path d="M0 0 C2.02796689 -0.00217775 4.05538196 -0.02031309 6.08325195 -0.03930664 C8.00814453 -0.04220703 8.00814453 -0.04220703 9.97192383 -0.04516602 C11.14795166 -0.0492749 12.32397949 -0.05338379 13.53564453 -0.05761719 C16.71886849 0.1841805 18.91009509 0.71989286 21.73364258 2.18530273 C23.25856256 5.23514269 22.96926806 7.82763963 22.73364258 11.18530273 C21.60595703 12.88525391 21.60595703 12.88525391 19.73364258 14.18530273 C16.91796875 14.55761719 16.91796875 14.55761719 13.52661133 14.54858398 C12.30006836 14.54793945 11.07352539 14.54729492 9.80981445 14.54663086 C8.52655273 14.53051758 7.24329102 14.5144043 5.92114258 14.49780273 C4.64948242 14.50102539 3.37782227 14.50424805 2.06762695 14.50756836 C-9.03352794 14.44360152 -9.03352794 14.44360152 -14.26635742 12.18530273 C-16.06820112 8.80684579 -16.50720365 7.08847608 -15.51635742 3.37280273 C-12.54283647 -1.83085893 -5.28754496 -0.00063713 0 0 Z " fill="#4B4444" transform="translate(104.266357421875,877.814697265625)"/>
<path d="M0 0 C4.92502863 3.81689719 10.08960611 10.05039642 11.51953125 16.25390625 C11.67776534 19.43616966 11.3742897 21.5059376 9.4375 24.0625 C5.61622466 25.53222129 3.89765648 25.38730146 0 24 C-2.75611341 20.91564311 -4.88229349 17.54348911 -7 14 C-7.56460938 13.13117187 -8.12921875 12.26234375 -8.7109375 11.3671875 C-10 9 -10 9 -9.875 5.875 C-8.18867049 0.33420305 -5.78140994 -0.92502559 0 0 Z " fill="#4B4444" transform="translate(528,0)"/>
<path d="M0 0 C1.00675781 0.15855469 2.01351563 0.31710937 3.05078125 0.48046875 C3.86160156 0.60808594 4.67242188 0.73570312 5.5078125 0.8671875 C8.58580135 1.48963794 10.70631127 2.16829283 13.05078125 4.29296875 C14.29006773 7.00390793 14.5665639 8.53313931 14.05078125 11.48046875 C12.55078125 13.79296875 12.55078125 13.79296875 10.05078125 15.48046875 C3.01607114 16.22096455 -5.62060475 15.64793833 -11.63671875 11.73046875 C-13.40549688 8.69827767 -13.52503108 6.93534274 -12.94921875 3.48046875 C-9.06345003 -1.62187243 -5.90299107 -0.72796349 0 0 Z " fill="#4B4444" transform="translate(12.94921875,867.51953125)"/>
<path d="M0 0 C0.89203125 0.13792969 1.7840625 0.27585937 2.703125 0.41796875 C10.57751037 1.76490309 10.57751037 1.76490309 13 5 C13.64615385 11.03076923 13.64615385 11.03076923 11.75 13.875 C7.26813724 16.75619749 3.01467658 15.7834559 -2 14.875 C-3.06734375 14.71644531 -3.06734375 14.71644531 -4.15625 14.5546875 C-7.82686459 13.89726399 -9.79956017 13.19417608 -12.5 10.578125 C-14 8 -14 8 -14 4.875 C-13 2 -13 2 -11.5 0.0625 C-7.55454184 -1.61431972 -4.13406745 -0.73822633 0 0 Z " fill="#4B4444" transform="translate(283,488)"/>
<path d="M0 0 C2.4375 2.125 2.4375 2.125 4 5 C3.93359375 7.9140625 3.93359375 7.9140625 3 11 C0.6015625 13.265625 0.6015625 13.265625 -2.375 15.25 C-3.35210937 15.91515625 -4.32921875 16.5803125 -5.3359375 17.265625 C-6.21507812 17.83796875 -7.09421875 18.4103125 -8 19 C-8.99 19.66 -9.98 20.32 -11 21 C-14.61550392 21.46155369 -16.33636094 21.45406883 -19.375 19.375 C-21 17 -21 17 -21.75 14.1875 C-20.31893678 8.10548133 -14.44783244 4.77415901 -9.375 1.5625 C-5.79128625 -0.09662673 -3.87433022 -0.77486604 0 0 Z " fill="#4B4444" transform="translate(290,425)"/>
<path d="M0 0 C4.81697599 2.28270623 7.608646 7.39638939 10.01953125 11.95703125 C10.89100042 15.20523452 10.7459415 16.56711676 10.01953125 19.95703125 C8.45703125 22.01953125 8.45703125 22.01953125 6.01953125 22.95703125 C2.76953125 23.33203125 2.76953125 23.33203125 -0.98046875 21.95703125 C-5.24382222 17.39023625 -9.44916445 12.3760546 -9.98046875 5.95703125 C-7.657676 1.0902274 -5.63358142 -0.88951286 0 0 Z " fill="#4B4444" transform="translate(259.98046875,470.04296875)"/>
<path d="M0 0 C3.375 0.8125 3.375 0.8125 5.375 2.8125 C6.1139674 6.19943393 6.3154652 7.56503728 5.375 10.8125 C2.54171255 15.04851522 -0.52027195 18.77444278 -4.625 21.8125 C-10.52818378 22.41397986 -10.52818378 22.41397986 -13.5625 20.75 C-15.36917484 17.45547529 -15.22527022 15.53417536 -14.625 11.8125 C-11.2166915 6.20648438 -7.04673452 -0.36448627 0 0 Z " fill="#4B4444" transform="translate(264.625,441.1875)"/>
</svg>
