<?xml version="1.0" encoding="UTF-8"?>
<svg version="1.1" xmlns="http://www.w3.org/2000/svg" width="31" height="30">
<path d="M0 0 C0.99 0 1.98 0 3 0 C3.99 3.63 4.98 7.26 6 11 C6.9075 11.12375 7.815 11.2475 8.75 11.375 C11.58970323 11.92109677 13.52590591 12.57263803 16 14 C15.67 14.99 15.34 15.98 15 17 C13.0390625 17.8515625 13.0390625 17.8515625 10.625 18.625 C7.6482541 19.82705637 6.32180406 20.4241401 4.73828125 23.2578125 C4.01820807 25.49882074 3.4300209 27.68678411 3 30 C2.01 30 1.02 30 0 30 C-0.99 26.37 -1.98 22.74 -3 19 C-3.9075 18.87625 -4.815 18.7525 -5.75 18.625 C-8.58970323 18.07890323 -10.52590591 17.42736197 -13 16 C-12.67 15.01 -12.34 14.02 -12 13 C-10.0390625 12.1484375 -10.0390625 12.1484375 -7.625 11.375 C-4.6482541 10.17294363 -3.32180406 9.5758599 -1.73828125 6.7421875 C-1.01820807 4.50117926 -0.4300209 2.31321589 0 0 Z " fill="#1BE49B" transform="translate(14,0)"/>
</svg>
