<?xml version="1.0" encoding="UTF-8"?>
<svg version="1.1" xmlns="http://www.w3.org/2000/svg" width="201" height="24">
<path d="M0 0 C2.14778541 0.00502766 4.29557196 0.00958832 6.44335938 0.01367188 C11.64976844 0.02457108 16.8561212 0.04176508 22.0625 0.0625 C22.0625 0.7225 22.0625 1.3825 22.0625 2.0625 C22.84262451 2.05202637 23.62274902 2.04155273 24.42651367 2.03076172 C28.03430835 1.98864012 31.642051 1.96299787 35.25 1.9375 C36.47654297 1.92074219 37.70308594 1.90398438 38.96679688 1.88671875 C47.18949648 1.8433272 54.97897512 2.55538774 63.0625 4.0625 C63.3925 5.0525 63.7225 6.0425 64.0625 7.0625 C62.78085968 7.04917633 62.78085968 7.04917633 61.47332764 7.0355835 C2.61686983 6.45230639 -53.55199797 9.52667699 -111.63574219 19.73144531 C-114.78100961 20.18381937 -117.76702519 20.20661249 -120.9375 20.0625 C-120.9375 19.4025 -120.9375 18.7425 -120.9375 18.0625 C-114.9975 16.5775 -114.9975 16.5775 -108.9375 15.0625 C-116.8575 15.5575 -116.8575 15.5575 -124.9375 16.0625 C-123.9375 10.0625 -123.9375 10.0625 -122.9375 9.0625 C-119.36043439 8.41200317 -115.73482378 8.05089327 -112.125 7.625 C-110.44494873 7.42487305 -110.44494873 7.42487305 -108.73095703 7.22070312 C-99.44675489 6.15553486 -90.15943627 5.44599989 -80.8359375 4.83447266 C-70.48474634 4.14258626 -60.17443548 3.16843092 -49.85498047 2.11523438 C-33.16626594 0.43009104 -16.76060888 -0.06879209 0 0 Z " fill="#1375B1" transform="translate(132.9375,1.9375)"/>
</svg>
