<?xml version="1.0" encoding="UTF-8"?>
<svg version="1.1" xmlns="http://www.w3.org/2000/svg" width="87" height="111">
<path d="M0 0 C3.96 0.33 7.92 0.66 12 1 C12 1.66 12 2.32 12 3 C13.134375 3.12375 14.26875 3.2475 15.4375 3.375 C16.613125 3.58125 17.78875 3.7875 19 4 C19.495 4.99 19.495 4.99 20 6 C20.99 6.66 21.98 7.32 23 8 C24 9 25 10 26 11 C26.66 11.33 27.32 11.66 28 12 C28.495 13.485 28.495 13.485 29 15 C29.495 15.5775 29.99 16.155 30.5 16.75 C33.68364043 21.52546064 33.15871103 27.92645603 33.1875 33.5 C33.20167969 34.7478125 33.21585938 35.995625 33.23046875 37.28125 C32.90604387 42.51603793 31.91730306 46.62404541 29 51 C28.505 51.99 28.505 51.99 28 53 C27.34 53.66 26.68 54.32 26 55 C25.814375 55.9590625 25.814375 55.9590625 25.625 56.9375 C24.79163355 59.68760929 23.28758154 60.35580077 21 62 C20.67 62.99 20.34 63.98 20 65 C19.484375 65.556875 18.96875 66.11375 18.4375 66.6875 C15.35386708 71.64812687 17.07931494 78.47588964 18 84 C17.01 84.33 16.02 84.66 15 85 C14.67 85.66 14.34 86.32 14 87 C5.58295169 90.03013739 -5.11741097 90.5923453 -13.6875 87.875 C-17.47234371 85.73263564 -19.03426943 83.84955569 -21 80 C-21 79.34 -21 78.68 -21 78 C-15.25 79.75 -15.25 79.75 -13 82 C-9.16294025 83.06735113 -5.46674086 83.13426809 -1.5 83.125 C-0.3965625 83.12757812 0.706875 83.13015625 1.84375 83.1328125 C4.68492244 83.01325821 7.23807642 82.64925815 10 82 C8.99609236 80.76775055 8.99609236 80.76775055 6.96875 80.9375 C6.1540625 80.958125 5.339375 80.97875 4.5 81 C3.00048046 81.03796252 1.49929044 81.04613201 0 81 C-2.18002624 78.81997376 -1.26167542 73.71146422 -1.31640625 70.67578125 C-1.3373233 69.71401474 -1.35824036 68.75224823 -1.37979126 67.76133728 C-1.44633045 64.61181038 -1.50503427 61.46220473 -1.5625 58.3125 C-1.58301422 57.24954712 -1.60352844 56.18659424 -1.62466431 55.09143066 C-1.76636791 47.7278567 -1.890159 40.36411595 -2 33 C-2.01309204 32.12607605 -2.02618408 31.2521521 -2.03967285 30.35174561 C-2.11208586 25.31779713 -2.1591901 20.28439061 -2.1875 15.25 C-2.20047119 14.02837158 -2.21344238 12.80674316 -2.22680664 11.5480957 C-2.22801514 10.44425537 -2.22922363 9.34041504 -2.23046875 8.203125 C-2.23457764 7.26114258 -2.23868652 6.31916016 -2.24291992 5.34863281 C-2 3 -2 3 0 0 Z M6 7 C5.67 8.65 5.34 10.3 5 12 C7.00032373 13.00016187 8.83125748 13.49396008 11 14 C12.04449911 10.86650268 11.93423645 10.01031744 11 7 C9.35 7 7.7 7 6 7 Z M15 12 C15 13.32 15 14.64 15 16 C15.99 15.67 16.98 15.34 18 15 C17.67 14.01 17.34 13.02 17 12 C16.34 12 15.68 12 15 12 Z M9 73 C10 75 10 75 10 75 Z M12 80 C13 82 13 82 13 82 Z " fill="#B6DFE6" transform="translate(47,3)"/>
<path d="M0 0 C5.81641433 -0.34214202 8.97836406 -0.0902375 14 3 C16.72126502 3.26087315 19.25720877 3.13946396 22 3 C22.495 4.485 22.495 4.485 23 6 C23.66 6 24.32 6 25 6 C25 27.78 25 49.56 25 72 C21.29867576 72.92533106 17.7973907 73.64838975 14 74 C13.34 73.34 12.68 72.68 12 72 C8.51450499 68.73092044 8.51450499 68.73092044 4 68 C3.67 66.02 3.34 64.04 3 62 C1.35 62 -0.3 62 -2 62 C-2.495 60.515 -2.495 60.515 -3 59 C-3.66 59 -4.32 59 -5 59 C-5.84098656 54.98195309 -6.05404945 51.98196457 -5 48 C-7.31 47.67 -9.62 47.34 -12 47 C-14.20808081 41.80451575 -13.93402724 38.41735797 -13 33 C-13.66 33 -14.32 33 -15 33 C-15.08153933 31.41753293 -15.13943557 29.83383727 -15.1875 28.25 C-15.22230469 27.36828125 -15.25710937 26.4865625 -15.29296875 25.578125 C-14.94469667 22.51333066 -13.85556549 21.39677209 -12 19 C-11.64131841 16.87027179 -11.64131841 16.87027179 -11.8125 14.75 C-11.874375 13.5125 -11.93625 12.275 -12 11 C-11.01 10.67 -10.02 10.34 -9 10 C-8.34 9.34 -7.68 8.68 -7 8 C-6.01 8 -5.02 8 -4 8 C-3.67 6.35 -3.34 4.7 -3 3 C-2.01 2.67 -1.02 2.34 0 2 C0 1.34 0 0.68 0 0 Z M6 4 C7 6 7 6 7 6 Z M14 36 C13.67 36.66 13.34 37.32 13 38 C13.99 37.67 14.98 37.34 16 37 C15.34 36.67 14.68 36.34 14 36 Z M1 47 C1.33 48.32 1.66 49.64 2 51 C2.99 50.67 3.98 50.34 5 50 C5 49.01 5 48.02 5 47 C3.68 47 2.36 47 1 47 Z " fill="#151829" transform="translate(18,6)"/>
<path d="M0 0 C1.32 0.33 2.64 0.66 4 1 C3.67 2.32 3.34 3.64 3 5 C3.99 4.34 4.98 3.68 6 3 C10.07490752 2.66042437 11.53001271 2.68667514 15 5 C15.31668834 7.7307911 15.44404872 10.23068096 15.43359375 12.96484375 C15.4388356 13.75395645 15.44407745 14.54306915 15.44947815 15.35609436 C15.45590628 17.02636538 15.45455111 18.69668163 15.44604492 20.36694336 C15.43754326 22.92448555 15.4662682 25.47978859 15.49804688 28.03710938 C15.49965916 29.6588535 15.49908084 31.28060158 15.49609375 32.90234375 C15.51294472 34.05089088 15.51294472 34.05089088 15.53013611 35.22264099 C15.46098122 40.48661616 15.46098122 40.48661616 13.19165039 43.01391602 C9.84774562 44.51843104 7.48656925 43.88749036 4 43 C2.0625 41.875 2.0625 41.875 1 40 C0.50426663 36.10495209 0.41983152 33.90506283 2.5625 30.5625 C5.81870797 28.4751872 8.20995016 28.7084577 12 29 C12 28.34 12 27.68 12 27 C8.73440544 26.77216782 6.34182278 26.87570081 3.25 28 C0.7241693 30.24518284 0.6732188 30.82732949 0.125 34 C-0.55870581 37.68930361 -0.55870581 37.68930361 -2.63671875 39.15234375 C-4.38765824 39.86621563 -6.19345458 40.44161323 -8 41 C-8.495 41.495 -8.495 41.495 -9 42 C-14.24050633 42.4556962 -14.24050633 42.4556962 -16.875 40.875 C-18.48515263 38.19141229 -18.26647742 36.06449028 -18 33 C-17 32 -17 32 -14.125 31.8125 C-11 32 -11 32 -8 34 C-5.84725052 33.69159401 -5.84725052 33.69159401 -4 33 C-5.175625 32.814375 -5.175625 32.814375 -6.375 32.625 C-9 32 -9 32 -11 30 C-10.67028521 26.70285207 -10.3773161 25.3773161 -8 23 C-8.99 23.33 -9.98 23.66 -11 24 C-12.21869929 26.50447516 -12.21869929 26.50447516 -13 29 C-17.75 28.25 -17.75 28.25 -20 26 C-19.8125 23 -19.8125 23 -19 20 C-18.01 19.34 -17.02 18.68 -16 18 C-15.01 18.66 -14.02 19.32 -13 20 C-10.02878466 20.22873769 -10.02878466 20.22873769 -7 19 C-5.65995745 17.36285573 -5.65995745 17.36285573 -4.5 15.4375 C-3.29296875 13.53125 -3.29296875 13.53125 -2 12 C1.1875 11.4375 1.1875 11.4375 4 12 C6 14 6 14 6.125 16.625 C6.08375 17.40875 6.0425 18.1925 6 19 C6.66 19 7.32 19 8 19 C7.1395861 14.66770285 7.1395861 14.66770285 5 11 C0.93643265 10.43700692 0.93643265 10.43700692 -3 11 C-4.55131044 12.69542124 -5.60299494 14.46307625 -6.77734375 16.43359375 C-8 18 -8 18 -11.1875 18.5625 C-14 18 -14 18 -16 16 C-15.625 12.375 -15.625 12.375 -15 9 C-13.02 8.67 -11.04 8.34 -9 8 C-8.01 9.485 -8.01 9.485 -7 11 C-7.20625 9.906875 -7.4125 8.81375 -7.625 7.6875 C-8 4 -8 4 -6 1 C-5.34 1 -4.68 1 -4 1 C-3.67 1.66 -3.34 2.32 -3 3 C-2.34 3 -1.68 3 -1 3 C-0.67 2.01 -0.34 1.02 0 0 Z M7 33 C6.67 33.66 6.34 34.32 6 35 C6.99 34.67 7.98 34.34 9 34 C8.34 33.67 7.68 33.34 7 33 Z " fill="#C7CACC" transform="translate(25,9)"/>
<path d="M0 0 C9.26175857 0.51454214 16.13321923 2.50439656 23 9 C29.15529606 16.18424107 31.68581158 23.35969736 31.41015625 32.83984375 C30.21714711 42.03169512 26.1197655 49.17287204 19 55 C15.63251488 53.48052501 14.39159663 52.47899158 13 49 C11.515 49.495 11.515 49.495 10 50 C10.62263977 46.07092835 11.87874846 42.9054627 13.5625 39.3125 C15.86933825 33.8897585 17.27686992 28.87360165 16 23 C14.92217987 20.68269812 14.92217987 20.68269812 13 19 C10.34121464 18.33867365 10.34121464 18.33867365 7.4375 18.3125 C2.1317716 18.0658858 2.1317716 18.0658858 0 17 C0 11.39 0 5.78 0 0 Z M6 4 C5.67 5.65 5.34 7.3 5 9 C7.00032373 10.00016187 8.83125748 10.49396008 11 11 C12.04449911 7.86650268 11.93423645 7.01031744 11 4 C9.35 4 7.7 4 6 4 Z M15 9 C15 10.32 15 11.64 15 13 C15.99 12.67 16.98 12.34 18 12 C17.67 11.01 17.34 10.02 17 9 C16.34 9 15.68 9 15 9 Z " fill="#DCECEE" transform="translate(47,6)"/>
<path d="M0 0 C3.96 0.33 7.92 0.66 12 1 C12 1.66 12 2.32 12 3 C13.134375 3.12375 14.26875 3.2475 15.4375 3.375 C16.613125 3.58125 17.78875 3.7875 19 4 C19.33 4.66 19.66 5.32 20 6 C20.99 6.66 21.98 7.32 23 8 C24 9 25 10 26 11 C26.66 11.33 27.32 11.66 28 12 C28.33 12.99 28.66 13.98 29 15 C29.495 15.5775 29.99 16.155 30.5 16.75 C33.68364043 21.52546064 33.15871103 27.92645603 33.1875 33.5 C33.20167969 34.7478125 33.21585938 35.995625 33.23046875 37.28125 C32.90604387 42.51603793 31.91730306 46.62404541 29 51 C28.67 51.66 28.34 52.32 28 53 C27.34 53.66 26.68 54.32 26 55 C25.87625 55.639375 25.7525 56.27875 25.625 56.9375 C24.79163355 59.68760929 23.28758154 60.35580077 21 62 C20.67 62.99 20.34 63.98 20 65 C19.505 65.556875 19.01 66.11375 18.5 66.6875 C16.90310691 69.14937684 16.77624035 70.21610411 16.5625 73.0625 C16 77 16 77 13.9375 79 C12.9784375 79.495 12.9784375 79.495 12 80 C12 77 12 77 13 76 C13.20912703 74.56806079 13.36791979 73.12858946 13.5 71.6875 C13.77707425 68.69410854 14.20340984 65.90091582 15 63 C14.01 63 13.02 63 12 63 C12 62.34 12 61.68 12 61 C13.5390625 59.95703125 13.5390625 59.95703125 15.625 58.8125 C23.3220188 54.13445324 27.78145782 47.74953153 30 39 C31.01118792 31.09622505 30.03157884 24.86029317 26 18 C25.63777344 17.36191406 25.27554688 16.72382813 24.90234375 16.06640625 C20.29357399 8.80173528 14.20321217 6.10455502 6 4.1875 C4.02 3.795625 2.04 3.40375 0 3 C0 8.61 0 14.22 0 20 C2.0625 20.061875 4.125 20.12375 6.25 20.1875 C10.23391728 20.30701752 12.27768738 20.42564497 15.421875 22.92578125 C18.01879103 27.98462509 17.92872333 32.94260992 16.28271484 38.36132812 C15.33015083 40.70285989 14.28365435 42.97234188 13.1875 45.25 C8.23151322 56.25019001 5.8069273 66.92391556 5 79 C4.67 79 4.34 79 4 79 C3.44234758 66.93302116 4.85413571 57.43050538 9.6015625 46.17578125 C13.75908364 36.46042184 13.75908364 36.46042184 14 26 C12.16116119 23.71271266 12.16116119 23.71271266 9.375 23.875 C8.59125 23.91625 7.8075 23.9575 7 24 C7.66 24.66 8.32 25.32 9 26 C9.55186722 32.07053942 9.55186722 32.07053942 7.8125 35 C6 36 6 36 1 35 C0.67 45.89 0.34 56.78 0 68 C-0.33 68 -0.66 68 -1 68 C-1.5812734 50.67001383 -2.10187866 33.34046225 -2.1875 16 C-2.20683594 14.09806885 -2.20683594 14.09806885 -2.2265625 12.15771484 C-2.22785156 10.99191895 -2.22914062 9.82612305 -2.23046875 8.625 C-2.23457764 7.60664063 -2.23868652 6.58828125 -2.24291992 5.5390625 C-2 3 -2 3 0 0 Z " fill="#48759A" transform="translate(47,3)"/>
<path d="M0 0 C1.32 0.33 2.64 0.66 4 1 C3.67 2.32 3.34 3.64 3 5 C3.99 4.34 4.98 3.68 6 3 C10.07490752 2.66042437 11.53001271 2.68667514 15 5 C15.31668834 7.7307911 15.44404872 10.23068096 15.43359375 12.96484375 C15.4388356 13.75395645 15.44407745 14.54306915 15.44947815 15.35609436 C15.45590628 17.02636538 15.45455111 18.69668163 15.44604492 20.36694336 C15.43754326 22.92448555 15.4662682 25.47978859 15.49804688 28.03710938 C15.49965916 29.6588535 15.49908084 31.28060158 15.49609375 32.90234375 C15.51294472 34.05089088 15.51294472 34.05089088 15.53013611 35.22264099 C15.46098122 40.48661616 15.46098122 40.48661616 13.19165039 43.01391602 C9.84774562 44.51843104 7.48656925 43.88749036 4 43 C2.0625 41.875 2.0625 41.875 1 40 C0.50426663 36.10495209 0.41983152 33.90506283 2.5625 30.5625 C5.81870797 28.4751872 8.20995016 28.7084577 12 29 C11.67 28.01 11.34 27.02 11 26 C10.93029948 23.60509014 10.91551997 21.20832309 10.9375 18.8125 C10.94652344 17.54019531 10.95554687 16.26789062 10.96484375 14.95703125 C10.97644531 13.98121094 10.98804687 13.00539063 11 12 C10.38125 12.20625 9.7625 12.4125 9.125 12.625 C8.42375 12.74875 7.7225 12.8725 7 13 C6.34 12.34 5.68 11.68 5 11 C0.92134129 10.37152997 0.92134129 10.37152997 -3 11 C-4.54510017 12.69749361 -5.60423466 14.46515646 -6.77734375 16.43359375 C-8 18 -8 18 -11.1875 18.5625 C-14 18 -14 18 -16 16 C-15.625 12.375 -15.625 12.375 -15 9 C-13.02 8.67 -11.04 8.34 -9 8 C-8.01 9.485 -8.01 9.485 -7 11 C-7.20625 9.906875 -7.4125 8.81375 -7.625 7.6875 C-8 4 -8 4 -6 1 C-5.34 1 -4.68 1 -4 1 C-3.67 1.66 -3.34 2.32 -3 3 C-2.34 3 -1.68 3 -1 3 C-0.67 2.01 -0.34 1.02 0 0 Z M7 33 C6.67 33.66 6.34 34.32 6 35 C6.99 34.67 7.98 34.34 9 34 C8.34 33.67 7.68 33.34 7 33 Z " fill="#D5D8D9" transform="translate(25,9)"/>
<path d="M0 0 C0.66 0 1.32 0 2 0 C2 0.66 2 1.32 2 2 C12.24599003 4.87606738 23.8564697 5.65167091 34 2 C34.33 1.34 34.66 0.68 35 0 C35.99 0 36.98 0 38 0 C39.09664428 4.60590598 39.46059116 7.83592266 37 12 C34.05371921 13.12904921 31.12483476 13.62707733 28 14 C28 15.32 28 16.64 28 18 C27.67 18.99 27.34 19.98 27 21 C14.33029613 21.18451025 14.33029613 21.18451025 9 20 C9 19.113125 9 18.22625 9 17.3125 C7.8441054 13.48359914 7.24765997 13.22737208 3.9375 11.3125 C3.20402344 10.93738281 2.47054688 10.56226562 1.71484375 10.17578125 C1.14894531 9.78777344 0.58304688 9.39976563 0 9 C0 8.01 0 7.02 0 6 C0.66 6 1.32 6 2 6 C1.01 4.35 0.02 2.7 -1 1 C-0.67 0.67 -0.34 0.34 0 0 Z M2 6 C2.33 6.99 2.66 7.98 3 9 C5.31 9.33 7.62 9.66 10 10 C7.33440687 8.22293791 4.9719385 7.12451727 2 6 Z M34 6 C33.01 6.99 32.02 7.98 31 9 C32.32 8.67 33.64 8.34 35 8 C34.67 7.34 34.34 6.68 34 6 Z M27 9 C31 10 31 10 31 10 Z M10 10 C10 10.33 10 10.66 10 11 C15.61 11 21.22 11 27 11 C27 10.67 27 10.34 27 10 C21.39 10 15.78 10 10 10 Z M25 15 C24.34 15.66 23.68 16.32 23 17 C23.99 17 24.98 17 26 17 C25.67 16.34 25.34 15.68 25 15 Z M14 17 C14 17.33 14 17.66 14 18 C16.97 18 19.94 18 23 18 C23 17.67 23 17.34 23 17 C20.03 17 17.06 17 14 17 Z " fill="#2B485E" transform="translate(27,88)"/>
<path d="M0 0 C5.51398771 -0.36759918 5.51398771 -0.36759918 7.67041016 1.26342773 C9.61864256 3.80800671 9.48487524 6.27634968 9.37792969 9.38720703 C8.65714765 14.37028802 6.60378214 18.83956298 4.625 23.4375 C0.73124457 32.61824522 -1.85740079 41.14621022 -2.625 51.125 C-2.69976562 52.05570313 -2.77453125 52.98640625 -2.8515625 53.9453125 C-2.90054688 54.62335938 -2.94953125 55.30140625 -3 56 C-3.66 56 -4.32 56 -5 56 C-7.70621885 46.69095898 -7.01510729 37.43455991 -6.625 27.875 C-6.56663919 26.23441268 -6.50933893 24.59378728 -6.453125 22.953125 C-6.31430682 18.96820558 -6.16114649 14.98407638 -6 11 C-5.05125 11.165 -4.1025 11.33 -3.125 11.5 C-0.19831099 12.0526635 -0.19831099 12.0526635 2 12 C2.05422947 10.5629191 2.09289723 9.12524538 2.125 7.6875 C2.14820313 6.88699219 2.17140625 6.08648437 2.1953125 5.26171875 C2.15817322 2.71611424 2.15817322 2.71611424 0 0 Z " fill="#E1F2F3" transform="translate(53,26)"/>
<path d="M0 0 C3.96 0.33 7.92 0.66 12 1 C12 1.66 12 2.32 12 3 C13.134375 3.12375 14.26875 3.2475 15.4375 3.375 C16.613125 3.58125 17.78875 3.7875 19 4 C19.33 4.66 19.66 5.32 20 6 C20.99 6.66 21.98 7.32 23 8 C24 9 25 10 26 11 C26.66 11.33 27.32 11.66 28 12 C28.33 12.99 28.66 13.98 29 15 C29.495 15.5775 29.99 16.155 30.5 16.75 C33.68364043 21.52546064 33.15871103 27.92645603 33.1875 33.5 C33.20167969 34.7478125 33.21585938 35.995625 33.23046875 37.28125 C32.90604387 42.51603793 31.91730306 46.62404541 29 51 C28.67 51.66 28.34 52.32 28 53 C27.34 53.66 26.68 54.32 26 55 C25.87625 55.639375 25.7525 56.27875 25.625 56.9375 C24.79163355 59.68760929 23.28758154 60.35580077 21 62 C20.67 62.99 20.34 63.98 20 65 C19.505 65.556875 19.01 66.11375 18.5 66.6875 C16.90310691 69.14937684 16.77624035 70.21610411 16.5625 73.0625 C16 77 16 77 13.9375 79 C12.9784375 79.495 12.9784375 79.495 12 80 C12 77 12 77 13 76 C13.20912703 74.56806079 13.36791979 73.12858946 13.5 71.6875 C13.77707425 68.69410854 14.20340984 65.90091582 15 63 C14.01 63 13.02 63 12 63 C12 62.34 12 61.68 12 61 C13.5390625 59.95703125 13.5390625 59.95703125 15.625 58.8125 C23.3220188 54.13445324 27.78145782 47.74953153 30 39 C31.01118792 31.09622505 30.03157884 24.86029317 26 18 C25.63777344 17.36191406 25.27554688 16.72382813 24.90234375 16.06640625 C21.1356944 10.1291454 15.98617845 7.11981692 9.5 4.6875 C5.51897082 3.90551213 2.04757011 3.85798 -2 4 C-1.34 2.68 -0.68 1.36 0 0 Z " fill="#19527C" transform="translate(47,3)"/>
<path d="M0 0 C0.66 0 1.32 0 2 0 C2.08701039 3.60401481 2.14039388 7.20776012 2.1875 10.8125 C2.21263672 11.83666016 2.23777344 12.86082031 2.26367188 13.91601562 C2.27333984 14.89892578 2.28300781 15.88183594 2.29296875 16.89453125 C2.3086792 17.80050049 2.32438965 18.70646973 2.34057617 19.63989258 C2 22 2 22 0.6418457 23.83081055 C-1 25 -1 25 -3.5625 24.8125 C-6 24 -6 24 -8 22 C-8 21.01 -8 20.02 -8 19 C-8.763125 19.226875 -9.52625 19.45375 -10.3125 19.6875 C-13 20 -13 20 -14.875 18.875 C-16 17 -16 17 -15.6875 14.3125 C-15.460625 13.549375 -15.23375 12.78625 -15 12 C-10.32674845 12 -8.17640953 13.07242637 -4 15 C-4 14.01 -4 13.02 -4 12 C-4.78375 12.04125 -5.5675 12.0825 -6.375 12.125 C-9 12 -9 12 -11 10 C-11.25 7.5 -11.25 7.5 -11 5 C-8.80111858 2.80111858 -7.88645942 2.5743896 -4.9375 1.9375 C-2.1992487 1.47637504 -2.1992487 1.47637504 0 0 Z " fill="#D0D1D3" transform="translate(39,52)"/>
<path d="M0 0 C0 0.66 0 1.32 0 2 C-0.63808594 2.12117188 -1.27617188 2.24234375 -1.93359375 2.3671875 C-2.75988281 2.53476562 -3.58617188 2.70234375 -4.4375 2.875 C-5.26121094 3.03742187 -6.08492187 3.19984375 -6.93359375 3.3671875 C-7.61550781 3.57601562 -8.29742187 3.78484375 -9 4 C-10.54163175 7.0832635 -10.29747535 9.60878099 -10 13 C-8.0995533 14.84315671 -8.0995533 14.84315671 -6 16 C-6 16.66 -6 17.32 -6 18 C-4.35 18 -2.7 18 -1 18 C-1 18.33 -1 18.66 -1 19 C-3.31 19.66 -5.62 20.32 -8 21 C-8 22.65 -8 24.3 -8 26 C-6.02 26.66 -4.04 27.32 -2 28 C-2 28.99 -2 29.98 -2 31 C-6.87362847 30.54663921 -9.39042389 29.2910841 -13 26 C-13.66 27.32 -14.32 28.64 -15 30 C-18.65316671 28.75023244 -19.78065836 28.32901247 -22 25 C-22.25 21.4375 -22.25 21.4375 -22 18 C-21.34 17.34 -20.68 16.68 -20 16 C-20 15.01 -20 14.02 -20 13 C-17 11 -17 11 -13 11 C-13.103125 10.113125 -13.20625 9.22625 -13.3125 8.3125 C-12.90194499 3.96061694 -11.28831975 2.74026646 -8 0 C-5.13822943 -1.43088528 -3.06624227 -0.59991697 0 0 Z M-18 17 C-17.67 18.32 -17.34 19.64 -17 21 C-16.01 20.67 -15.02 20.34 -14 20 C-14 19.01 -14 18.02 -14 17 C-15.32 17 -16.64 17 -18 17 Z " fill="#0E101F" transform="translate(37,36)"/>
<path d="M0 0 C6.75562849 3.92769098 11.00126849 9.25380547 13.48828125 16.71484375 C15.68003289 26.50243696 13.36910366 34.19937691 9 43 C8.01 43 7.02 43 6 43 C5.67 42.34 5.34 41.68 5 41 C2.97536745 40.34786708 2.97536745 40.34786708 1 40 C1.28617187 39.43667969 1.57234375 38.87335937 1.8671875 38.29296875 C5.92361989 30.08219008 8.74335424 23.24205861 6.19921875 14.1328125 C4.61241598 9.51331719 2.94652328 5.89211241 0 2 C0 1.34 0 0.68 0 0 Z " fill="#BCE5EB" transform="translate(64,11)"/>
<path d="M0 0 C1.32 0.33 2.64 0.66 4 1 C3.67 2.32 3.34 3.64 3 5 C3.99 4.34 4.98 3.68 6 3 C8.6875 3.375 8.6875 3.375 11 4 C11 4.99 11 5.98 11 7 C10.01 7 9.02 7 8 7 C8 7.66 8 8.32 8 9 C7.26394531 9.06316406 6.52789063 9.12632813 5.76953125 9.19140625 C0.02940417 9.71227172 0.02940417 9.71227172 -4.6328125 12.69140625 C-5.40135904 13.95111002 -6.15241248 15.22170768 -6.8828125 16.50390625 C-8 18 -8 18 -11.1875 18.5625 C-14 18 -14 18 -16 16 C-15.625 12.375 -15.625 12.375 -15 9 C-13.02 8.67 -11.04 8.34 -9 8 C-8.01 9.485 -8.01 9.485 -7 11 C-7.20625 9.906875 -7.4125 8.81375 -7.625 7.6875 C-8 4 -8 4 -6 1 C-5.34 1 -4.68 1 -4 1 C-3.67 1.66 -3.34 2.32 -3 3 C-2.34 3 -1.68 3 -1 3 C-0.67 2.01 -0.34 1.02 0 0 Z " fill="#C8CBCC" transform="translate(25,9)"/>
<path d="M0 0 C0.66 0 1.32 0 2 0 C2.33 0.66 2.66 1.32 3 2 C9.09535758 4.39131998 14.96043047 4.23456656 21.4375 4.125 C22.45521484 4.11597656 23.47292969 4.10695313 24.52148438 4.09765625 C27.01457156 4.07424698 29.50715859 4.041457 32 4 C32.495 4.99 32.495 4.99 33 6 C31.35 6.66 29.7 7.32 28 8 C28 9.32 28 10.64 28 12 C27.67 12.99 27.34 13.98 27 15 C14.33029613 15.18451025 14.33029613 15.18451025 9 14 C9 13.113125 9 12.22625 9 11.3125 C7.8441054 7.48359914 7.24765997 7.22737208 3.9375 5.3125 C2.83728516 4.74982422 2.83728516 4.74982422 1.71484375 4.17578125 C1.14894531 3.78777344 0.58304688 3.39976563 0 3 C0 2.01 0 1.02 0 0 Z M25 9 C24.34 9.66 23.68 10.32 23 11 C23.99 11 24.98 11 26 11 C25.67 10.34 25.34 9.68 25 9 Z M14 11 C14 11.33 14 11.66 14 12 C16.97 12 19.94 12 23 12 C23 11.67 23 11.34 23 11 C20.03 11 17.06 11 14 11 Z " fill="#2E5676" transform="translate(27,94)"/>
<path d="M0 0 C1.4606285 2.64738916 2 3.89448334 2 7 C1.01 7.33 0.02 7.66 -1 8 C-1.33 8.66 -1.66 9.32 -2 10 C-10.41704831 13.03013739 -21.11741097 13.5923453 -29.6875 10.875 C-33.47234371 8.73263564 -35.03426943 6.84955569 -37 3 C-37 2.34 -37 1.68 -37 1 C-31.25 2.75 -31.25 2.75 -29 5 C-25.16294025 6.06735113 -21.46674086 6.13426809 -17.5 6.125 C-16.3965625 6.12757812 -15.293125 6.13015625 -14.15625 6.1328125 C-11.31507756 6.01325821 -8.76192358 5.64925815 -6 5 C-6 4.34 -6 3.68 -6 3 C-5.38125 2.87625 -4.7625 2.7525 -4.125 2.625 C-1.80879168 2.12802644 -1.80879168 2.12802644 0 0 Z " fill="#265171" transform="translate(63,80)"/>
<path d="M0 0 C5.81641433 -0.34214202 8.97836406 -0.0902375 14 3 C16.72126502 3.26087315 19.25720877 3.13946396 22 3 C22.33 3.99 22.66 4.98 23 6 C23.66 6 24.32 6 25 6 C25 26.13 25 46.26 25 67 C24.67 67 24.34 67 24 67 C23.505 54.625 23.505 54.625 23 42 C22.67 42 22.34 42 22 42 C21.67 30.78 21.34 19.56 21 8 C18.2540274 6.6270137 16.0410953 6.87587366 13 7 C12.01 7.33 11.02 7.66 10 8 C10 6.68 10 5.36 10 4 C9.01 4 8.02 4 7 4 C6.67 4.66 6.34 5.32 6 6 C5.01 6 4.02 6 3 6 C3 5.34 3 4.68 3 4 C2.54625 4.495 2.0925 4.99 1.625 5.5 C0 7 0 7 -2 7 C-2 7.99 -2 8.98 -2 10 C-2.66 9.67 -3.32 9.34 -4 9 C-3.67 7.02 -3.34 5.04 -3 3 C-2.01 2.67 -1.02 2.34 0 2 C0 1.34 0 0.68 0 0 Z " fill="#35384C" transform="translate(18,6)"/>
<path d="M0 0 C0.33 0 0.66 0 1 0 C1.33 20.46 1.66 40.92 2 62 C-1.70132424 62.92533106 -5.2026093 63.64838975 -9 64 C-9.66 63.34 -10.32 62.68 -11 62 C-14.48549501 58.73092044 -14.48549501 58.73092044 -19 58 C-19.33 56.02 -19.66 54.04 -20 52 C-21.65 52 -23.3 52 -25 52 C-24.67 51.01 -24.34 50.02 -24 49 C-22.35 49.33 -20.7 49.66 -19 50 C-18.67 48.68 -18.34 47.36 -18 46 C-17.01 46 -16.02 46 -15 46 C-15.66 46.99 -16.32 47.98 -17 49 C-16.6878236 51.64632287 -16.6878236 51.64632287 -16 54 C-13.92446352 54.5534764 -12.15634036 55 -10 55 C-8.375 57.5 -8.375 57.5 -7 60 C-3.70924004 59.62095792 -3.70924004 59.62095792 -1 58 C-0.84285346 56.36743242 -0.74914586 54.72864662 -0.68359375 53.08984375 C-0.64169922 52.10048828 -0.59980469 51.11113281 -0.55664062 50.09179688 C-0.51732422 49.05087891 -0.47800781 48.00996094 -0.4375 46.9375 C-0.39431641 45.89271484 -0.35113281 44.84792969 -0.30664062 43.77148438 C-0.20018775 41.18113116 -0.0981724 38.59067814 0 36 C-0.99 36.66 -1.98 37.32 -3 38 C-5.33199388 38.07905064 -7.66832622 38.08798769 -10 38 C-10 37.67 -10 37.34 -10 37 C-8.88625 36.731875 -7.7725 36.46375 -6.625 36.1875 C-2.78159049 35.34190981 -2.78159049 35.34190981 -1 32 C-0.76034953 29.53615097 -0.62758 27.17459424 -0.5859375 24.70703125 C-0.56657135 24.00100266 -0.5472052 23.29497406 -0.5272522 22.56755066 C-0.46754776 20.31598939 -0.4211086 18.06437672 -0.375 15.8125 C-0.33681171 14.28448311 -0.29775948 12.75648755 -0.2578125 11.22851562 C-0.16185404 7.48585065 -0.07778989 3.7430849 0 0 Z " fill="#0C0E1E" transform="translate(41,16)"/>
<path d="M0 0 C0.66 0.33 1.32 0.66 2 1 C2.09884645 6.07196349 2.17145653 11.143367 2.21972656 16.21606445 C2.23984739 17.94174973 2.26714748 19.66736678 2.30175781 21.39282227 C2.35025758 23.8727297 2.37296304 26.35173628 2.390625 28.83203125 C2.41127014 29.60400345 2.43191528 30.37597565 2.45318604 31.17134094 C2.45541616 36.48984751 2.45541616 36.48984751 0.19824219 39.01831055 C-3.1502911 40.51369619 -5.5117904 39.8879079 -9 39 C-10.9375 37.875 -10.9375 37.875 -12 36 C-12.4375 32.5625 -12.4375 32.5625 -12 29 C-10 26.5625 -10 26.5625 -8 25 C-6.68 25.99 -5.36 26.98 -4 28 C-4.33 28.66 -4.66 29.32 -5 30 C-5 30.66 -5 31.32 -5 32 C-6.98 32.495 -6.98 32.495 -9 33 C-9 33.66 -9 34.32 -9 35 C-8.67 35.33 -8.34 35.66 -8 36 C-5.69 36 -3.38 36 -1 36 C-0.67 24.12 -0.34 12.24 0 0 Z " fill="#9EA0A2" transform="translate(38,13)"/>
<path d="M0 0 C1.875 1.6875 1.875 1.6875 3 4 C2.4375 6.25 2.4375 6.25 1 9 C0.29082419 10.43708456 -0.41746524 11.87460678 -1.125 13.3125 C-1.74803935 14.54266164 -2.37237545 15.77217138 -3 17 C-6.65316671 15.75023244 -7.78065836 15.32901247 -10 12 C-10.5 8.625 -10.5 8.625 -10 5 C-7.18420026 1.33397501 -4.69259412 0 0 0 Z M-6 4 C-5.67 5.32 -5.34 6.64 -5 8 C-4.01 7.67 -3.02 7.34 -2 7 C-2 6.01 -2 5.02 -2 4 C-3.32 4 -4.64 4 -6 4 Z " fill="#CBCED0" transform="translate(25,49)"/>
<path d="M0 0 C0.99 0.33 1.98 0.66 3 1 C2.67 3.64 2.34 6.28 2 9 C3.32 8.67 4.64 8.34 6 8 C6.33 5.69 6.66 3.38 7 1 C7.33 1 7.66 1 8 1 C8.46444522 5.7373412 8.66529126 8.94841058 6.0625 13.0625 C2.01410797 15.62372761 -1.31579688 15.67746739 -6 15 C-7 14 -7 14 -7.09765625 11.49609375 C-7.08605469 10.48675781 -7.07445312 9.47742188 -7.0625 8.4375 C-7.05347656 7.42558594 -7.04445312 6.41367188 -7.03515625 5.37109375 C-7.02355469 4.58863281 -7.01195312 3.80617188 -7 3 C-6.67 3 -6.34 3 -6 3 C-5.67 6.3 -5.34 9.6 -5 13 C-4.34 13 -3.68 13 -3 13 C-3 9.37 -3 5.74 -3 2 C-2.34 2.33 -1.68 2.66 -1 3 C-0.67 2.01 -0.34 1.02 0 0 Z " fill="#BEE6EA" transform="translate(53,69)"/>
<path d="M0 0 C3.875 1.75 3.875 1.75 5 4 C5.82671597 11.34200444 4.34185942 16.69567455 1.1875 23.25 C-3.76848678 34.25019001 -6.1930727 44.92391556 -7 57 C-7.33 57 -7.66 57 -8 57 C-8.55765242 44.93302116 -7.14586429 35.43050538 -2.3984375 24.17578125 C1.74787354 14.45912793 1.74787354 14.45912793 2 4 C1.37620413 2.64607942 0.71829087 1.3062467 0 0 Z " fill="#145B99" transform="translate(59,25)"/>
<path d="M0 0 C1.5 1.375 1.5 1.375 3 3 C3 3.66 3 4.32 3 5 C2.360625 5.474375 1.72125 5.94875 1.0625 6.4375 C-1.28372963 7.9091365 -1.28372963 7.9091365 -2 11 C-2.495 11.556875 -2.99 12.11375 -3.5 12.6875 C-5.09689309 15.14937684 -5.22375965 16.21610411 -5.4375 19.0625 C-6 23 -6 23 -8.0625 25 C-8.701875 25.33 -9.34125 25.66 -10 26 C-10 23 -10 23 -9 22 C-8.79087297 20.56806079 -8.63208021 19.12858946 -8.5 17.6875 C-8.22292575 14.69410854 -7.79659016 11.90091582 -7 9 C-7.99 9 -8.98 9 -10 9 C-10 8.34 -10 7.68 -10 7 C-8.3203125 5.78125 -8.3203125 5.78125 -6.125 4.5 C-3.74637514 3.10181191 -1.96207916 1.96207916 0 0 Z " fill="#125486" transform="translate(69,57)"/>
<path d="M0 0 C3.62253357 3.62253357 3.16314264 7.3590429 3.1875 12.25 C3.20167969 13.53390625 3.21585938 14.8178125 3.23046875 16.140625 C2.91403684 21.4395186 1.95342992 25.56985512 -1 30 C-1.33 30.66 -1.66 31.32 -2 32 C-2.66 32.66 -3.32 33.32 -4 34 C-4.33 34.66 -4.66 35.32 -5 36 C-5.66 35.67 -6.32 35.34 -7 35 C-6.31976269 31.6683832 -5.06267812 28.94928951 -3.5 25.9375 C-0.98622457 21.07802133 0.13861028 17.56785878 0.125 12.0625 C0.12886719 10.50208984 0.12886719 10.50208984 0.1328125 8.91015625 C0.10143594 6.08360909 0.10143594 6.08360909 -0.5703125 3.74609375 C-1 2 -1 2 0 0 Z " fill="#18609D" transform="translate(77,24)"/>
<path d="M0 0 C1.17755859 0.48726563 1.17755859 0.48726563 2.37890625 0.984375 C6.98414335 2.27602726 11.18121324 2.29218436 15.9375 2.25 C16.80568359 2.25773437 17.67386719 2.26546875 18.56835938 2.2734375 C23.76511113 2.25772548 28.08073717 1.6866044 33 0 C32.67 1.32 32.34 2.64 32 4 C23.31113814 6.83717938 12.87588996 7.68870775 4.125 4.6875 C1 3 1 3 0 0 Z " fill="#C0C2C3" transform="translate(29,86)"/>
<path d="M0 0 C0.99 0.33 1.98 0.66 3 1 C2.34 1 1.68 1 1 1 C0.67 3.64 0.34 6.28 0 9 C1.32 9.33 2.64 9.66 4 10 C4.66 8.68 5.32 7.36 6 6 C6.6875 7.8125 6.6875 7.8125 7 10 C5.875 11.8125 5.875 11.8125 4 13 C2.35 12.67 0.7 12.34 -1 12 C-1.33 22.89 -1.66 33.78 -2 45 C-2.33 45 -2.66 45 -3 45 C-3.19339657 40.14406439 -3.37192893 35.28788564 -3.53710938 30.4309082 C-3.59526653 28.78102211 -3.65738063 27.13127031 -3.72363281 25.48168945 C-3.81853113 23.10132322 -3.89887062 20.72082638 -3.9765625 18.33984375 C-4.00875885 17.61039047 -4.0409552 16.88093719 -4.0741272 16.12937927 C-4.24728399 10.11881575 -3.40519863 5.10779794 0 0 Z " fill="#3B6586" transform="translate(49,26)"/>
<path d="M0 0 C0.66 0 1.32 0 2 0 C2.08701039 3.60401481 2.14039388 7.20776012 2.1875 10.8125 C2.22520508 12.34874023 2.22520508 12.34874023 2.26367188 13.91601562 C2.27333984 14.89892578 2.28300781 15.88183594 2.29296875 16.89453125 C2.3086792 17.80050049 2.32438965 18.70646973 2.34057617 19.63989258 C2 22 2 22 0.73168945 23.8190918 C-1 25 -1 25 -5 25 C-5 24.34 -5 23.68 -5 23 C-4.01 22.34 -3.02 21.68 -2 21 C-1.50919927 18.89449011 -1.50919927 18.89449011 -1.5234375 16.46484375 C-1.4925 15.57345703 -1.4615625 14.68207031 -1.4296875 13.76367188 C-1.41164062 12.83103516 -1.39359375 11.89839844 -1.375 10.9375 C-1.32420404 9.09233668 -1.26971864 7.24726995 -1.2109375 5.40234375 C-1.18459229 4.17245728 -1.18459229 4.17245728 -1.15771484 2.91772461 C-1 1 -1 1 0 0 Z " fill="#909399" transform="translate(39,52)"/>
<path d="M0 0 C0.33 0.99 0.66 1.98 1 3 C2.49985609 4.66710346 2.49985609 4.66710346 4 6 C2.875 8 2.875 8 1 10 C-2.0625 10.375 -2.0625 10.375 -5 10 C-5.66 9.34 -6.32 8.68 -7 8 C-6.75 4.4375 -6.75 4.4375 -6 1 C-4 0 -4 0 0 0 Z " fill="#C7CACC" transform="translate(16,17)"/>
<path d="M0 0 C4.05445642 -0.43132515 5.54970958 -0.30019361 9 2 C7.55746343 5.36591866 5.66735273 7.51047079 3 10 C1.0625 9.3125 1.0625 9.3125 -1 8 C-1.875 5.5625 -1.875 5.5625 -2 3 C-1.34 2.01 -0.68 1.02 0 0 Z " fill="#C5E9EC" transform="translate(63,51)"/>
<path d="M0 0 C0.33 0 0.66 0 1 0 C1 17.82 1 35.64 1 54 C0.67 54 0.34 54 0 54 C0 48.06 0 42.12 0 36 C-0.99 36.66 -1.98 37.32 -3 38 C-5.33199388 38.07905064 -7.66832622 38.08798769 -10 38 C-10 37.67 -10 37.34 -10 37 C-8.88625 36.731875 -7.7725 36.46375 -6.625 36.1875 C-2.78159049 35.34190981 -2.78159049 35.34190981 -1 32 C-0.76034953 29.53615097 -0.62758 27.17459424 -0.5859375 24.70703125 C-0.56657135 24.00100266 -0.5472052 23.29497406 -0.5272522 22.56755066 C-0.46754776 20.31598939 -0.4211086 18.06437672 -0.375 15.8125 C-0.33681171 14.28448311 -0.29775948 12.75648755 -0.2578125 11.22851562 C-0.16185404 7.48585065 -0.07778989 3.7430849 0 0 Z " fill="#00010D" transform="translate(41,16)"/>
<path d="M0 0 C0.99 0 1.98 0 3 0 C3.42925781 0.49113281 3.85851563 0.98226562 4.30078125 1.48828125 C6.82945582 3.73792966 8.8763377 3.29431169 12.1875 3.1875 C13.81751953 3.14689453 13.81751953 3.14689453 15.48046875 3.10546875 C16.31191406 3.07066406 17.14335938 3.03585938 18 3 C18.33 2.01 18.66 1.02 19 0 C19.66 0.33 20.32 0.66 21 1 C20.34 2.98 19.68 4.96 19 7 C6.33029613 7.18451025 6.33029613 7.18451025 1 6 C0.67 4.02 0.34 2.04 0 0 Z " fill="#2D5471" transform="translate(35,102)"/>
<path d="M0 0 C0.33 0 0.66 0 1 0 C1.03758423 1.38505737 1.03758423 1.38505737 1.07592773 2.7980957 C1.17109045 6.22546416 1.27032214 9.65266461 1.37231445 13.07983398 C1.4156133 14.56286015 1.45729199 16.04593454 1.49731445 17.52905273 C1.55513958 19.66144339 1.61879832 21.79359242 1.68359375 23.92578125 C1.72025146 25.20880127 1.75690918 26.49182129 1.79467773 27.8137207 C1.86561234 31.02111551 1.86561234 31.02111551 3 34 C3.0685495 35.89470816 3.08480372 37.7916834 3.0625 39.6875 C3.05347656 40.68136719 3.04445313 41.67523438 3.03515625 42.69921875 C3.02355469 43.45847656 3.01195312 44.21773437 3 45 C2.34 45 1.68 45 1 45 C-1.70621885 35.69095898 -1.01510729 26.43455991 -0.625 16.875 C-0.56663919 15.23441268 -0.50933893 13.59378728 -0.453125 11.953125 C-0.31430682 7.96820558 -0.16114649 3.98407638 0 0 Z " fill="#F4FBFB" transform="translate(47,37)"/>
<path d="M0 0 C2.97 0.99 5.94 1.98 9 3 C8.360625 3.763125 7.72125 4.52625 7.0625 5.3125 C4.85767219 7.88246713 4.85767219 7.88246713 4 11 C-0.75 10.25 -0.75 10.25 -3 8 C-2.54545455 2.54545455 -2.54545455 2.54545455 0 0 Z " fill="#D3D7D8" transform="translate(8,27)"/>
<path d="M0 0 C1.794375 0.7425 1.794375 0.7425 3.625 1.5 C13.12459824 4.65655942 23.45857044 3.4623044 33 1 C29.13503721 5.27906594 26.85518788 5.88452402 21.171875 6.23828125 C6.74139627 6.58988682 6.74139627 6.58988682 0 2 C0 1.34 0 0.68 0 0 Z " fill="#D0D1D2" transform="translate(29,92)"/>
<path d="M0 0 C4.39842734 0.25873102 6.49522922 0.56106889 9.875 3.5 C10.57625 4.325 11.2775 5.15 12 6 C12.33 6.33 12.66 6.66 13 7 C13.125 9.5 13.125 9.5 13 12 C12 13 12 13 10.15234375 13.09765625 C8.1015625 13.06510417 6.05078125 13.03255208 4 13 C4 12.34 4 11.68 4 11 C2.68 10.67 1.36 10.34 0 10 C1.98 9.34 3.96 8.68 6 8 C6 6.35 6 4.7 6 3 C4.02 2.34 2.04 1.68 0 1 C0 0.67 0 0.34 0 0 Z M9 8 C9 9.32 9 10.64 9 12 C9.99 11.67 10.98 11.34 12 11 C11.67 10.01 11.34 9.02 11 8 C10.34 8 9.68 8 9 8 Z " fill="#EBF6F7" transform="translate(53,7)"/>
<path d="M0 0 C0.99 0 1.98 0 3 0 C4.33517241 7.40413793 4.33517241 7.40413793 2.875 10 C0.4020613 11.31890064 -1.23606641 11.35435046 -4 11 C-6 9 -6 9 -6.125 5.875 C-6.08375 4.92625 -6.0425 3.9775 -6 3 C-5.34 2.67 -4.68 2.34 -4 2 C-4 3.32 -4 4.64 -4 6 C-3.01 5.67 -2.02 5.34 -1 5 C-0.67 3.35 -0.34 1.7 0 0 Z " fill="#CBCDCF" transform="translate(34,39)"/>
<path d="M0 0 C3.875 0.625 3.875 0.625 5.875 1.75 C7.29598605 4.41434884 7.07267261 6.65991085 6.875 9.625 C6.215 9.625 5.555 9.625 4.875 9.625 C4.215 7.645 3.555 5.665 2.875 3.625 C0.04426564 3.12330585 0.04426564 3.12330585 -3.125 3.625 C-5.375 6.45833333 -5.375 6.45833333 -7.125 9.625 C-10.125 11.625 -10.125 11.625 -12.8125 11.25 C-13.575625 11.04375 -14.33875 10.8375 -15.125 10.625 C-15.125 10.295 -15.125 9.965 -15.125 9.625 C-14.238125 9.439375 -13.35125 9.25375 -12.4375 9.0625 C-8.92535765 7.53836275 -8.57679077 7.08621648 -6.75 4 C-4.79176421 0.94820396 -3.66116484 0.10689532 0 0 Z " fill="#161826" transform="translate(26.125,18.375)"/>
<path d="M0 0 C0.66 0 1.32 0 2 0 C2 0.66 2 1.32 2 2 C7.93029625 3.45826957 13.51277718 4.28902577 19.6171875 4.55859375 C22.36672018 5.06793341 23.27330675 5.85592726 25 8 C6.74800822 8.45566692 6.74800822 8.45566692 1.0625 3.375 C0.381875 2.59125 -0.29875 1.8075 -1 1 C-0.67 0.67 -0.34 0.34 0 0 Z " fill="#49677E" transform="translate(27,88)"/>
<path d="M0 0 C3.96 0.33 7.92 0.66 12 1 C12 1.66 12 2.32 12 3 C14.31 3.33 16.62 3.66 19 4 C19 4.99 19 5.98 19 7 C18.01 7.33 17.02 7.66 16 8 C15.154375 7.54625 14.30875 7.0925 13.4375 6.625 C9.54059992 4.78282905 6.42290658 4.48145769 2.171875 4.2109375 C0 4 0 4 -2 3 C-1.34 2.01 -0.68 1.02 0 0 Z " fill="#246494" transform="translate(47,3)"/>
<path d="M0 0 C0.66 0 1.32 0 2 0 C-0.00453539 6.37806716 -4.25057708 9.8788847 -10 13 C-9.51428134 8.62853208 -8.16325079 6.9591701 -5 4 C-5 3.34 -5 2.68 -5 2 C-3.35 2.33 -1.7 2.66 0 3 C0 2.01 0 1.02 0 0 Z " fill="#E1F4F6" transform="translate(67,43)"/>
<path d="M0 0 C0.99 0.33 1.98 0.66 3 1 C3.04898438 1.69867188 3.09796875 2.39734375 3.1484375 3.1171875 C3.22320312 4.02726562 3.29796875 4.93734375 3.375 5.875 C3.44460937 6.77992187 3.51421875 7.68484375 3.5859375 8.6171875 C3.79568132 11.17941903 3.79568132 11.17941903 6 13 C4.52093108 13.02689216 3.04172517 13.04634621 1.5625 13.0625 C0.32693359 13.07990234 0.32693359 13.07990234 -0.93359375 13.09765625 C-3 13 -3 13 -4 12 C-4.07226502 10.14712498 -4.0838122 8.29166122 -4.0625 6.4375 C-4.05347656 5.42558594 -4.04445312 4.41367188 -4.03515625 3.37109375 C-4.02355469 2.58863281 -4.01195312 1.80617188 -4 1 C-3.67 1 -3.34 1 -3 1 C-2.67 4.3 -2.34 7.6 -2 11 C-1.34 11 -0.68 11 0 11 C0 7.37 0 3.74 0 0 Z " fill="#94AFBD" transform="translate(50,71)"/>
<path d="M0 0 C0.66 0.33 1.32 0.66 2 1 C1.67 1.66 1.34 2.32 1 3 C3.475 3.99 3.475 3.99 6 5 C7.125 11.75 7.125 11.75 6 14 C4.68 14 3.36 14 2 14 C2.33 13.01 2.66 12.02 3 11 C3.66 11 4.32 11 5 11 C5 9.68 5 8.36 5 7 C3.35 7 1.7 7 0 7 C-0.66 5.68 -1.32 4.36 -2 3 C-1.34 2.01 -0.68 1.02 0 0 Z " fill="#909395" transform="translate(30,57)"/>
<path d="M0 0 C0.66 0.66 1.32 1.32 2 2 C1.01 2.33 0.02 2.66 -1 3 C-1.16687448 5.41645782 -1.16687448 5.41645782 -1 8 C1.35953094 10.35953094 2.77895617 10.49141413 6 11 C5.67 11.66 5.34 12.32 5 13 C0.51474352 12.343621 -3.66914029 11.29925791 -8 10 C-7.67 9.01 -7.34 8.02 -7 7 C-6.01 7 -5.02 7 -4 7 C-3.8453125 5.824375 -3.8453125 5.824375 -3.6875 4.625 C-3 2 -3 2 0 0 Z " fill="#252838" transform="translate(16,31)"/>
<path d="M0 0 C1.75 2 1.75 2 3 4 C2.1875 5.9375 2.1875 5.9375 1 8 C0.01 8.33 -0.98 8.66 -2 9 C-2.33 8.01 -2.66 7.02 -3 6 C-2.67 5.34 -2.34 4.68 -2 4 C-3.65 4.33 -5.3 4.66 -7 5 C-6.625 3.0625 -6.625 3.0625 -6 1 C-4 0 -4 0 0 0 Z " fill="#A9ABAC" transform="translate(25,49)"/>
<path d="M0 0 C3 1 3 1 4 3 C4.039992 4.99960012 4.04346799 7.00047242 4 9 C2.125 9.625 2.125 9.625 0 10 C-0.66 9.34 -1.32 8.68 -2 8 C-1.69347955 5.0574037 -1.32728846 2.65457692 0 0 Z " fill="#E2F2F3" transform="translate(50,27)"/>
<path d="M0 0 C0 3.63 0 7.26 0 11 C-2 9 -4 7 -6 5 C-5.67 4.67 -5.34 4.34 -5 4 C-5.66 3.67 -6.32 3.34 -7 3 C-7.33 3.99 -7.66 4.98 -8 6 C-8.33 5.01 -8.66 4.02 -9 3 C-6.40198864 0.40198864 -3.67135617 0 0 0 Z " fill="#D1D3D3" transform="translate(37,54)"/>
<path d="M0 0 C1.32 0.66 2.64 1.32 4 2 C4 3.65 4 5.3 4 7 C4.66 7.33 5.32 7.66 6 8 C3.6875 8.6875 3.6875 8.6875 1 9 C-0.875 7.875 -0.875 7.875 -2 6 C-1.57894737 1.57894737 -1.57894737 1.57894737 0 0 Z " fill="#AFB3B7" transform="translate(25,63)"/>
<path d="M0 0 C0.33 0 0.66 0 1 0 C1.33 1.65 1.66 3.3 2 5 C2.99 4.67 3.98 4.34 5 4 C4.34 7.96 3.68 11.92 3 16 C2.34 16 1.68 16 1 16 C-0.14077657 12.57767028 -0.09815117 9.91326783 -0.0625 6.3125 C-0.05347656 5.13300781 -0.04445312 3.95351563 -0.03515625 2.73828125 C-0.02355469 1.83464844 -0.01195312 0.93101563 0 0 Z " fill="#DBF0F1" transform="translate(48,55)"/>
<path d="M0 0 C1.24136719 0.47566406 1.24136719 0.47566406 2.5078125 0.9609375 C6.31847819 2.09475973 9.93226312 2.44161689 13.875 2.625 C14.56335937 2.66367188 15.25171875 2.70234375 15.9609375 2.7421875 C17.64023246 2.83548166 19.32007767 2.91878238 21 3 C21 3.33 21 3.66 21 4 C19.02 4 17.04 4 15 4 C15 4.66 15 5.32 15 6 C4.060808 5.38400666 4.060808 5.38400666 0 2 C0 1.34 0 0.68 0 0 Z " fill="#9EA1A5" transform="translate(29,86)"/>
<path d="M0 0 C5.28 0 10.56 0 16 0 C12 4 12 4 9.74609375 4.4609375 C8.60333984 4.41839844 8.60333984 4.41839844 7.4375 4.375 C6.29087891 4.35566406 6.29087891 4.35566406 5.12109375 4.3359375 C3 4 3 4 0 2 C0 1.34 0 0.68 0 0 Z " fill="#CBCCCC" transform="translate(38,101)"/>
<path d="M0 0 C0.66 0.33 1.32 0.66 2 1 C2.05389087 2.95803507 2.09274217 4.91648909 2.125 6.875 C2.14820312 7.96554688 2.17140625 9.05609375 2.1953125 10.1796875 C2 13 2 13 0 15 C-0.185625 14.071875 -0.185625 14.071875 -0.375 13.125 C-0.87197356 10.80879168 -0.87197356 10.80879168 -3 9 C-2.01 6.03 -1.02 3.06 0 0 Z " fill="#B1DFE8" transform="translate(76,29)"/>
<path d="M0 0 C-1 2 -1 2 -2.578125 2.62109375 C-5.96917345 3.15162875 -9.32857318 3.10454022 -12.75 3.0625 C-13.44738281 3.05798828 -14.14476562 3.05347656 -14.86328125 3.04882812 C-16.57555803 3.0371002 -18.28779033 3.01916653 -20 3 C-20 2.67 -20 2.34 -20 2 C-13.25846717 0.74158054 -6.86515862 -0.26404456 0 0 Z " fill="#194A74" transform="translate(61,92)"/>
<path d="M0 0 C0.66 0 1.32 0 2 0 C1.93989582 1.93835966 1.85108283 3.87584491 1.75 5.8125 C1.70359375 6.89144531 1.6571875 7.97039062 1.609375 9.08203125 C1 12 1 12 -1.046875 13.88671875 C-1.69140625 14.25410156 -2.3359375 14.62148437 -3 15 C-3 12 -3 12 -2 11 C-1.79231771 9.52603261 -1.63283983 8.0450874 -1.5 6.5625 C-1.10958904 2.21917808 -1.10958904 2.21917808 0 0 Z " fill="#1766A3" transform="translate(62,68)"/>
<path d="M0 0 C1.20628008 2.33214148 2.1654738 4.49642139 3 7 C2.01 7 1.02 7 0 7 C0 6.01 0 5.02 0 4 C-0.9075 4.33 -1.815 4.66 -2.75 5 C-6 6 -6 6 -10 6 C-8.74313901 3.48627802 -7.34445969 2.51700333 -5 1 C-4.01 1 -3.02 1 -2 1 C-2 1.66 -2 2.32 -2 3 C-1.34 3 -0.68 3 0 3 C0 2.01 0 1.02 0 0 Z " fill="#10121F" transform="translate(16,13)"/>
<path d="M0 0 C0.99 0 1.98 0 3 0 C3.226875 0.804375 3.45375 1.60875 3.6875 2.4375 C4.120625 3.283125 4.55375 4.12875 5 5 C7.54775306 5.89386164 7.54775306 5.89386164 10 6 C10 6.99 10 7.98 10 9 C6.51072308 8.68279301 4.44149146 8.33692769 1.625 6.1875 C0 4 0 4 0 0 Z " fill="#2A2F3D" transform="translate(25,58)"/>
<path d="M0 0 C2.58258923 2.58258923 2.72987466 4.72875612 3.4375 8.22265625 C3.7159375 9.10244141 3.7159375 9.10244141 4 10 C4.66 10.33 5.32 10.66 6 11 C3 12 3 12 0 11 C-0.84098656 6.98195309 -1.05404945 3.98196457 0 0 Z " fill="#1B1F2F" transform="translate(13,54)"/>
<path d="M0 0 C-0.33 1.32 -0.66 2.64 -1 4 C-1.99 4 -2.98 4 -4 4 C-4 3.34 -4 2.68 -4 2 C-4.45375 2.495 -4.9075 2.99 -5.375 3.5 C-7 5 -7 5 -9 5 C-9 5.99 -9 6.98 -9 8 C-9.66 7.67 -10.32 7.34 -11 7 C-10.67 5.02 -10.34 3.04 -10 1 C-6.52674819 -0.1577506 -3.63932552 -0.06866652 0 0 Z " fill="#363A45" transform="translate(25,8)"/>
<path d="M0 0 C0.99 0.33 1.98 0.66 3 1 C2.67 2.98 2.34 4.96 2 7 C0.35 7.33 -1.3 7.66 -3 8 C-2.74438677 5.6568787 -2.40729228 3.32156597 -2 1 C-1.34 0.67 -0.68 0.34 0 0 Z " fill="#ADCACE" transform="translate(57,70)"/>
<path d="M0 0 C0.99 0.495 0.99 0.495 2 1 C2.309375 1.94875 2.61875 2.8975 2.9375 3.875 C3.97151659 6.91622528 4.71280168 7.9207288 7 10 C7 10.66 7 11.32 7 12 C3.34683329 10.75023244 2.21934164 10.32901247 0 7 C-0.07905064 4.66800612 -0.08798769 2.33167378 0 0 Z " fill="#969A9F" transform="translate(15,54)"/>
<path d="M0 0 C0.33 0.66 0.66 1.32 1 2 C1.66 2.33 2.32 2.66 3 3 C2.34 3.66 1.68 4.32 1 5 C0.67 5.66 0.34 6.32 0 7 C-0.66 7.66 -1.32 8.32 -2 9 C-2.33 9.66 -2.66 10.32 -3 11 C-3.66 10.67 -4.32 10.34 -5 10 C-4.38545304 6.00544473 -2.29353263 3.25533664 0 0 Z " fill="#13507F" transform="translate(75,49)"/>
<path d="M0 0 C1.4606285 2.64738916 2 3.89448334 2 7 C-0.31 6.67 -2.62 6.34 -5 6 C-5.33 5.01 -5.66 4.02 -6 3 C-5.38125 2.87625 -4.7625 2.7525 -4.125 2.625 C-1.80879168 2.12802644 -1.80879168 2.12802644 0 0 Z " fill="#233849" transform="translate(63,80)"/>
<path d="M0 0 C0.99 0.33 1.98 0.66 3 1 C2.814375 2.216875 2.62875 3.43375 2.4375 4.6875 C2.01006818 8.02977939 2.07741117 10.71968417 3 14 C2.01 13.67 1.02 13.34 0 13 C0 8.71 0 4.42 0 0 Z " fill="#E9F7F8" transform="translate(53,69)"/>
<path d="M0 0 C0.33 0.66 0.66 1.32 1 2 C2.98 2 4.96 2 7 2 C6.67 2.66 6.34 3.32 6 4 C5.34 4 4.68 4 4 4 C4.33 5.32 4.66 6.64 5 8 C3.68 8.33 2.36 8.66 1 9 C0.67 6.03 0.34 3.06 0 0 Z " fill="#BFE8ED" transform="translate(55,60)"/>
<path d="M0 0 C1.2077558 3.62326739 0.54311128 4.64146369 -1 8 C-2.32 7.67 -3.64 7.34 -5 7 C-4.625 4.0625 -4.625 4.0625 -4 1 C-2 0 -2 0 0 0 Z " fill="#DCECEE" transform="translate(55,50)"/>
<path d="M0 0 C1.65 0 3.3 0 5 0 C4.67 1.65 4.34 3.3 4 5 C4.99 5 5.98 5 7 5 C7 5.66 7 6.32 7 7 C2.25 6.25 2.25 6.25 0 4 C0 2.68 0 1.36 0 0 Z " fill="#A1A4A7" transform="translate(5,31)"/>
<path d="M0 0 C0.66 0.33 1.32 0.66 2 1 C1.01 3.31 0.02 5.62 -1 8 C-3.31 7.67 -5.62 7.34 -8 7 C-7.67 6.01 -7.34 5.02 -7 4 C-5.35 4.33 -3.7 4.66 -2 5 C-1.855625 4.360625 -1.71125 3.72125 -1.5625 3.0625 C-1 1 -1 1 0 0 Z " fill="#090C1C" transform="translate(24,61)"/>
<path d="M0 0 C0 0.66 0 1.32 0 2 C-3.63 2.33 -7.26 2.66 -11 3 C-6.77319309 -1.22680691 -5.69611211 -1.11445672 0 0 Z " fill="#282A38" transform="translate(37,36)"/>
<path d="M0 0 C5.4 -0.36 5.4 -0.36 7.875 1.125 C9.4682099 3.78034983 9.20214032 5.96789518 9 9 C8.34 9 7.68 9 7 9 C6.773125 8.05125 6.54625 7.1025 6.3125 6.125 C5.30916286 2.80676612 5.30916286 2.80676612 2.375 1.625 C1.59125 1.41875 0.8075 1.2125 0 1 C0 0.67 0 0.34 0 0 Z " fill="#0D0F1C" transform="translate(24,19)"/>
<path d="M0 0 C1.98 0 3.96 0 6 0 C6.66 1.32 7.32 2.64 8 4 C6.35 4.33 4.7 4.66 3 5 C2.01 3.35 1.02 1.7 0 0 Z " fill="#E7F5F7" transform="translate(53,26)"/>
<path d="M0 0 C0.66 0.33 1.32 0.66 2 1 C1.67 1.66 1.34 2.32 1 3 C2.32 3.33 3.64 3.66 5 4 C5 4.66 5 5.32 5 6 C3.02 6 1.04 6 -1 6 C-1 2 -1 2 0 0 Z " fill="#A8ABAC" transform="translate(30,57)"/>
<path d="M0 0 C0.66 0.33 1.32 0.66 2 1 C0.875 3 0.875 3 -1 5 C-4.0625 5.4375 -4.0625 5.4375 -7 5 C-7.66 4.01 -8.32 3.02 -9 2 C-7.329375 2.061875 -7.329375 2.061875 -5.625 2.125 C-1.95633975 2.41121859 -1.95633975 2.41121859 0 0 Z " fill="#A4A9AB" transform="translate(18,22)"/>
<path d="M0 0 C0.66 0 1.32 0 2 0 C2 0.66 2 1.32 2 2 C4.31 2.66 6.62 3.32 9 4 C8.01 4.66 7.02 5.32 6 6 C2.22873209 4.98819642 1.21585428 4.32378142 -1 1 C-0.67 0.67 -0.34 0.34 0 0 Z " fill="#305A7C" transform="translate(27,88)"/>
<path d="M0 0 C0.33 0.66 0.66 1.32 1 2 C2.65 2 4.3 2 6 2 C6 2.33 6 2.66 6 3 C4.906875 3.268125 3.81375 3.53625 2.6875 3.8125 C-0.61692663 4.87663739 -1.94960422 5.34654664 -4 8 C-3.50168276 4.31245243 -2.89932357 2.39509338 0 0 Z " fill="#191C2C" transform="translate(30,52)"/>
<path d="M0 0 C5.75 0.75 5.75 0.75 8 3 C4.7 3.33 1.4 3.66 -2 4 C-1.34 2.68 -0.68 1.36 0 0 Z " fill="#1D5889" transform="translate(47,3)"/>
<path d="M0 0 C3 0 3 0 4.6875 1.375 C6 3 6 3 6 5 C4.35 5.33 2.7 5.66 1 6 C0.67 4.02 0.34 2.04 0 0 Z " fill="#294860" transform="translate(35,102)"/>
<path d="M0 0 C3.96 1.32 7.92 2.64 12 4 C12 4.33 12 4.66 12 5 C7.04230204 5.29162929 3.97193147 5.12940055 0 2 C0 1.34 0 0.68 0 0 Z " fill="#CECFD1" transform="translate(29,86)"/>
<path d="M0 0 C2 3 2 3 2 5 C2.66 5.66 3.32 6.32 4 7 C3.67 7.99 3.34 8.98 3 10 C0.52098038 8.05989769 0.00329768 7.01374033 -0.75 3.875 C-0.8325 2.92625 -0.915 1.9775 -1 1 C-0.67 0.67 -0.34 0.34 0 0 Z " fill="#BFC1C3" transform="translate(17,52)"/>
<path d="M0 0 C0.99 0.33 1.98 0.66 3 1 C2.67 1.99 2.34 2.98 2 4 C1.34 4 0.68 4 0 4 C0 5.65 0 7.3 0 9 C-0.66 8.67 -1.32 8.34 -2 8 C-1.125 2.25 -1.125 2.25 0 0 Z " fill="#C9E1EA" transform="translate(50,27)"/>
<path d="M0 0 C0.66 0 1.32 0 2 0 C1.67 2.31 1.34 4.62 1 7 C0.01 7 -0.98 7 -2 7 C-2.125 4.625 -2.125 4.625 -2 2 C-1.34 1.34 -0.68 0.68 0 0 Z " fill="#B9E3E7" transform="translate(51,59)"/>
<path d="M0 0 C-1.625 1.5625 -1.625 1.5625 -4 3 C-7.25 2.6875 -7.25 2.6875 -10 2 C-3.24137931 -1.62068966 -3.24137931 -1.62068966 0 0 Z " fill="#BDBEC0" transform="translate(62,94)"/>
<path d="M0 0 C0.391875 0.474375 0.78375 0.94875 1.1875 1.4375 C3.40808374 3.35179633 5.13375709 3.61266988 8 4 C8 4.33 8 4.66 8 5 C5.69 5.33 3.38 5.66 1 6 C0.34 4.35 -0.32 2.7 -1 1 C-0.67 0.67 -0.34 0.34 0 0 Z " fill="#1C2032" transform="translate(31,74)"/>
<path d="M0 0 C2.97 0.495 2.97 0.495 6 1 C4.25 4.875 4.25 4.875 2 6 C2 5.34 2 4.68 2 4 C1.34 4 0.68 4 0 4 C0 2.68 0 1.36 0 0 Z " fill="#D9DDDE" transform="translate(29,66)"/>
<path d="M0 0 C0.99 0.33 1.98 0.66 3 1 C3 2.32 3 3.64 3 5 C2.01 5.33 1.02 5.66 0 6 C-0.38218767 4.34385343 -0.71395102 2.67542976 -1 1 C-0.67 0.67 -0.34 0.34 0 0 Z " fill="#CDD0D2" transform="translate(25,63)"/>
<path d="M0 0 C1.65 0 3.3 0 5 0 C4.67 1.32 4.34 2.64 4 4 C2.68 3.67 1.36 3.34 0 3 C0 2.01 0 1.02 0 0 Z " fill="#DEF2F4" transform="translate(61,55)"/>
<path d="M0 0 C2.97 0 5.94 0 9 0 C9 0.66 9 1.32 9 2 C6.69 2.33 4.38 2.66 2 3 C1.34 2.01 0.68 1.02 0 0 Z " fill="#121322" transform="translate(18,6)"/>
<path d="M0 0 C1.65 0.99 3.3 1.98 5 3 C4.01 4.485 4.01 4.485 3 6 C2.34 6 1.68 6 1 6 C0.67 4.02 0.34 2.04 0 0 Z " fill="#141625" transform="translate(21,68)"/>
<path d="M0 0 C1.5 1.375 1.5 1.375 3 3 C3 3.66 3 4.32 3 5 C2.01 5.33 1.02 5.66 0 6 C0 5.34 0 4.68 0 4 C-0.99 3.67 -1.98 3.34 -3 3 C-2.01 2.01 -1.02 1.02 0 0 Z " fill="#5E8DAD" transform="translate(69,57)"/>
<path d="M0 0 C0.99 0.33 1.98 0.66 3 1 C2.67 1.99 2.34 2.98 2 4 C0.02 4.33 -1.96 4.66 -4 5 C-2.93453047 2.86906094 -1.70840281 1.63412443 0 0 Z " fill="#161924" transform="translate(10,14)"/>
<path d="M0 0 C0.66 0 1.32 0 2 0 C2 0.66 2 1.32 2 2 C1.34 2 0.68 2 0 2 C0 1.34 0 0.68 0 0 Z " fill="#000000" transform="translate(62,16)"/>
<path d="" fill="#000000" transform="translate(0,0)"/>
<path d="" fill="#000000" transform="translate(0,0)"/>
<path d="" fill="#000000" transform="translate(0,0)"/>
<path d="" fill="#000000" transform="translate(0,0)"/>
<path d="" fill="#000000" transform="translate(0,0)"/>
<path d="" fill="#000000" transform="translate(0,0)"/>
<path d="" fill="#000000" transform="translate(0,0)"/>
<path d="" fill="#000000" transform="translate(0,0)"/>
<path d="" fill="#000000" transform="translate(0,0)"/>
<path d="" fill="#000000" transform="translate(0,0)"/>
<path d="" fill="#000000" transform="translate(0,0)"/>
<path d="" fill="#000000" transform="translate(0,0)"/>
<path d="" fill="#000000" transform="translate(0,0)"/>
<path d="" fill="#000000" transform="translate(0,0)"/>
<path d="" fill="#000000" transform="translate(0,0)"/>
<path d="" fill="#000000" transform="translate(0,0)"/>
<path d="" fill="#000000" transform="translate(0,0)"/>
<path d="" fill="#000000" transform="translate(0,0)"/>
<path d="" fill="#000000" transform="translate(0,0)"/>
<path d="" fill="#000000" transform="translate(0,0)"/>
<path d="" fill="#000000" transform="translate(0,0)"/>
<path d="" fill="#000000" transform="translate(0,0)"/>
<path d="" fill="#000000" transform="translate(0,0)"/>
<path d="" fill="#000000" transform="translate(0,0)"/>
<path d="" fill="#000000" transform="translate(0,0)"/>
<path d="" fill="#000000" transform="translate(0,0)"/>
<path d="" fill="#000000" transform="translate(0,0)"/>
<path d="" fill="#000000" transform="translate(0,0)"/>
<path d="" fill="#000000" transform="translate(0,0)"/>
<path d="" fill="#000000" transform="translate(0,0)"/>
<path d="" fill="#000000" transform="translate(0,0)"/>
<path d="" fill="#000000" transform="translate(0,0)"/>
<path d="" fill="#000000" transform="translate(0,0)"/>
<path d="" fill="#000000" transform="translate(0,0)"/>
<path d="" fill="#000000" transform="translate(0,0)"/>
<path d="" fill="#000000" transform="translate(0,0)"/>
<path d="" fill="#000000" transform="translate(0,0)"/>
<path d="" fill="#000000" transform="translate(0,0)"/>
<path d="" fill="#000000" transform="translate(0,0)"/>
<path d="" fill="#000000" transform="translate(0,0)"/>
<path d="" fill="#000000" transform="translate(0,0)"/>
<path d="" fill="#000000" transform="translate(0,0)"/>
<path d="" fill="#000000" transform="translate(0,0)"/>
<path d="" fill="#000000" transform="translate(0,0)"/>
<path d="" fill="#000000" transform="translate(0,0)"/>
<path d="" fill="#000000" transform="translate(0,0)"/>
<path d="" fill="#000000" transform="translate(0,0)"/>
<path d="" fill="#000000" transform="translate(0,0)"/>
<path d="" fill="#000000" transform="translate(0,0)"/>
<path d="" fill="#000000" transform="translate(0,0)"/>
<path d="" fill="#000000" transform="translate(0,0)"/>
<path d="" fill="#000000" transform="translate(0,0)"/>
<path d="" fill="#000000" transform="translate(0,0)"/>
<path d="" fill="#000000" transform="translate(0,0)"/>
<path d="" fill="#000000" transform="translate(0,0)"/>
<path d="" fill="#000000" transform="translate(0,0)"/>
<path d="" fill="#000000" transform="translate(0,0)"/>
<path d="" fill="#000000" transform="translate(0,0)"/>
<path d="" fill="#000000" transform="translate(0,0)"/>
<path d="" fill="#000000" transform="translate(0,0)"/>
<path d="" fill="#000000" transform="translate(0,0)"/>
<path d="" fill="#000000" transform="translate(0,0)"/>
<path d="" fill="#000000" transform="translate(0,0)"/>
<path d="" fill="#000000" transform="translate(0,0)"/>
<path d="" fill="#000000" transform="translate(0,0)"/>
<path d="" fill="#000000" transform="translate(0,0)"/>
<path d="" fill="#000000" transform="translate(0,0)"/>
<path d="" fill="#000000" transform="translate(0,0)"/>
</svg>
